<svg width="26" height="28" viewBox="0 0 26 28" fill="none" xmlns="http://www.w3.org/2000/svg">
<path d="M12.9997 16.3634C6.46639 16.3634 1.15099 21.3662 1.15099 27.5151C1.15099 27.7828 1.38179 28 1.66616 28C1.95053 28 2.18134 27.7828 2.18134 27.5151C2.18134 21.9005 7.03416 17.3331 12.9997 17.3331C18.9653 17.3331 23.8181 21.9005 23.8181 27.5151C23.8181 27.7828 24.0489 28 24.3333 28C24.6177 28 24.8485 27.7828 24.8485 27.5151C24.8484 21.3652 19.533 16.3634 12.9997 16.3634Z" fill="white"/>
<path d="M15.0083 6.8452L17.7474 3.12943H14.9337L12.3981 6.68715V3.12943H9.93747V10.8568H12.3981V7.29904L16.7748 12.9498C15.6396 13.6461 14.332 14.0095 13.0008 13.9986C12.0765 14.0171 11.158 13.8486 10.3004 13.5029C9.44287 13.1573 8.66387 12.6419 8.01019 11.9874C7.35651 11.333 6.84162 10.553 6.49643 9.69446C6.15124 8.83588 5.98285 7.91633 6.00138 6.99099C6.00571 5.13536 6.74502 3.35722 8.05716 2.04662C9.36929 0.736028 11.1471 0 13.0006 0C14.854 0 16.6318 0.736028 17.944 2.04662C19.2561 3.35722 19.9954 5.13536 19.9997 6.99099C20.0129 8.55705 19.5073 10.0833 18.5619 11.3311L15.0083 6.8452Z" fill="white"/>
</svg>
