<svg width="27" height="24" viewBox="0 0 27 24" fill="none" xmlns="http://www.w3.org/2000/svg">
<path fill-rule="evenodd" clip-rule="evenodd" d="M26.5723 22.4512L24.66 10.9301C24.6099 10.6195 24.4507 10.3369 24.2109 10.1332C23.9712 9.92943 23.6666 9.81784 23.352 9.81848H18.3578V10.7043H23.352C23.5669 10.7043 23.7513 10.8614 23.7873 11.0752L25.7007 22.5985C25.7108 22.6618 25.707 22.7265 25.6898 22.7882C25.6725 22.8499 25.6421 22.9072 25.6007 22.9561C25.5593 23.005 25.5078 23.0443 25.4497 23.0715C25.3917 23.0986 25.3284 23.1129 25.2643 23.1134H1.73453C1.67036 23.1133 1.60698 23.0993 1.54879 23.0722C1.4906 23.0452 1.439 23.0058 1.39757 22.9568C1.35615 22.9078 1.32589 22.8504 1.30891 22.7885C1.29194 22.7266 1.28864 22.6618 1.29926 22.5985L3.21271 11.0752C3.22952 10.9718 3.28252 10.8778 3.36224 10.8098C3.44197 10.7419 3.54324 10.7045 3.64798 10.7043H8.64107V9.81848H3.64907C3.33479 9.81806 3.03063 9.92961 2.79114 10.1331C2.55164 10.3366 2.39247 10.6188 2.34216 10.929L0.427619 22.4523C0.395032 22.6425 0.404406 22.8375 0.455086 23.0237C0.505766 23.21 0.596527 23.3828 0.721016 23.5303C0.845506 23.6777 1.00072 23.7962 1.17578 23.8774C1.35085 23.9586 1.54155 24.0005 1.73453 24.0003L25.2654 23.9992C25.4585 23.9995 25.6493 23.9575 25.8245 23.8762C25.9997 23.795 26.1549 23.6764 26.2794 23.5288C26.4039 23.3813 26.4947 23.2082 26.5453 23.0219C26.5959 22.8356 26.6051 22.6404 26.5723 22.4501V22.4512Z" fill="#EE2E24"/>
<path d="M13.5001 15.2727C13.6201 15.2727 13.7325 15.2182 13.8121 15.1233C14.0227 14.8724 18.9547 8.95309 18.9547 5.83964C18.9547 2.61491 16.5132 0 13.5001 0C10.487 0 8.04556 2.61491 8.04556 5.83964C8.04556 8.95309 12.9776 14.8724 13.1881 15.1233C13.226 15.1695 13.2736 15.2069 13.3275 15.2327C13.3814 15.2585 13.4403 15.2722 13.5001 15.2727ZM13.5001 0.898909C16.0474 0.901091 18.1125 3.11236 18.1147 5.83964C18.1147 7.98109 15.0307 12.2455 13.5001 14.1436C11.9696 12.2455 8.88556 7.98218 8.88556 5.83964C8.88775 3.11236 10.9528 0.901091 13.5001 0.897818V0.898909Z" fill="#EE2E24"/>
<path d="M16.7729 5.45461C16.7729 5.02483 16.6882 4.59926 16.5238 4.20219C16.3593 3.80513 16.1182 3.44435 15.8143 3.14044C15.5104 2.83654 15.1496 2.59548 14.7526 2.43101C14.3555 2.26654 13.9299 2.18188 13.5001 2.18188C13.0704 2.18188 12.6448 2.26654 12.2477 2.43101C11.8507 2.59548 11.4899 2.83654 11.186 3.14044C10.8821 3.44435 10.641 3.80513 10.4765 4.20219C10.3121 4.59926 10.2274 5.02483 10.2274 5.45461C10.2274 6.32259 10.5722 7.15502 11.186 7.76878C11.7997 8.38253 12.6322 8.72734 13.5001 8.72734C14.3681 8.72734 15.2006 8.38253 15.8143 7.76878C16.4281 7.15502 16.7729 6.32259 16.7729 5.45461ZM11.1623 5.45461C11.1623 4.83458 11.4086 4.23995 11.8471 3.80152C12.2855 3.3631 12.8801 3.11679 13.5001 3.11679C14.1202 3.11679 14.7148 3.3631 15.1532 3.80152C15.5917 4.23995 15.838 4.83458 15.838 5.45461C15.838 6.07464 15.5917 6.66927 15.1532 7.1077C14.7148 7.54612 14.1202 7.79243 13.5001 7.79243C12.8801 7.79243 12.2855 7.54612 11.8471 7.1077C11.4086 6.66927 11.1623 6.07464 11.1623 5.45461Z" fill="#F99B2A"/>
<path fill-rule="evenodd" clip-rule="evenodd" d="M13.5001 16.3634H15.682V17.4543H13.5001V16.3634ZM10.2274 16.3634H11.3183V17.4543H10.2274V16.3634ZM16.7729 16.3634H17.8638V17.4543H16.7729V16.3634Z" fill="#9A9A9C"/>
</svg>
