<svg width="20" height="20" viewBox="0 0 20 20" fill="none" xmlns="http://www.w3.org/2000/svg">
<path d="M15.4056 19.6889C15.2187 19.6884 15.0325 19.6679 14.85 19.6278C11.3759 18.9091 8.17534 17.2241 5.61667 14.7667C3.1126 12.3038 1.37589 9.1681 0.616669 5.73889C0.527148 5.3115 0.54912 4.86827 0.680472 4.45184C0.811823 4.03541 1.04813 3.65978 1.36667 3.36111L3.58889 1.22222C3.70239 1.11488 3.83726 1.03268 3.98468 0.980988C4.1321 0.929295 4.28876 0.90927 4.44445 0.92222C4.60587 0.939061 4.76165 0.991061 4.90082 1.07456C5.03999 1.15807 5.15918 1.27105 5.25 1.40555L8.02778 5.51111C8.13195 5.67041 8.18223 5.85894 8.17123 6.04896C8.16023 6.23898 8.08852 6.42045 7.96667 6.56666L6.57222 8.23333C7.12759 9.46247 7.91408 10.5734 8.88889 11.5056C9.85739 12.4716 11.0021 13.2429 12.2611 13.7778L13.9889 12.4056C14.134 12.2909 14.3106 12.2231 14.4952 12.2112C14.6797 12.1992 14.8636 12.2438 15.0222 12.3389L19.2167 15.05C19.3606 15.1359 19.4832 15.2533 19.5754 15.3934C19.6675 15.5335 19.7267 15.6926 19.7486 15.8588C19.7705 16.025 19.7546 16.194 19.7019 16.3531C19.6492 16.5123 19.5612 16.6575 19.4444 16.7778L17.2778 18.9222C17.0317 19.1671 16.7395 19.3609 16.4182 19.4925C16.0969 19.6241 15.7528 19.6908 15.4056 19.6889ZM4.35556 2.02222L2.13334 4.16111C1.95414 4.32808 1.82149 4.53882 1.74844 4.7726C1.67538 5.00638 1.66443 5.25515 1.71667 5.49444C2.42263 8.7123 4.0454 11.6568 6.38889 13.9722C8.79678 16.2842 11.8087 17.8691 15.0778 18.5444C15.3252 18.5962 15.5816 18.5857 15.824 18.5139C16.0664 18.4422 16.2872 18.3114 16.4667 18.1333L18.6333 15.9889L14.5833 13.3722L12.7278 14.85C12.6567 14.9062 12.573 14.9442 12.484 14.9607C12.3949 14.9771 12.3031 14.9716 12.2167 14.9444C10.6759 14.3768 9.2797 13.4757 8.12778 12.3056C6.93631 11.1929 6.01146 9.82556 5.42222 8.30555C5.3973 8.21353 5.39647 8.11665 5.41982 8.02421C5.44317 7.93178 5.48992 7.84691 5.55556 7.77778L7.05556 5.98333L4.35556 2.02222Z" fill="white"/>
</svg>
