<svg width="24" height="24" viewBox="0 0 24 24" fill="none" xmlns="http://www.w3.org/2000/svg">
<path d="M4.89776 8.88641L4.57516 7.91858L5.42567 7.62531L5.75805 8.59313L4.89776 8.88641ZM6.59878 8.30962L6.2664 7.3418L7.11691 7.04852L7.44929 8.01634L6.59878 8.30962ZM8.2998 7.73284L7.96742 6.76502L8.81793 6.47174L9.15031 7.43956L8.2998 7.73284Z" fill="#9A9A9C"/>
<path d="M4.08636 10.2159C4.07659 10.2159 4.07659 10.2159 4.06681 10.2159C3.79308 10.2061 3.58779 9.9813 3.59756 9.70757L3.81264 3.8811C3.57801 3.66602 3.2554 3.26521 2.99145 2.54179C2.71773 1.78904 3.14787 1.29046 3.4998 1.14382C3.57801 1.1145 5.44522 0.322643 6.42282 0.0489156C6.73565 -0.0390681 7.0387 0.00981177 7.30266 0.185779C8.0163 0.664802 8.19227 1.99433 8.2216 2.25828C8.2216 2.26806 8.2216 2.27784 8.2216 2.29739L8.23137 2.68843L10.8611 6.30554C11.0175 6.52061 10.9686 6.83344 10.7536 6.98985C10.5385 7.14627 10.2257 7.09739 10.0693 6.88232L7.37109 3.12835C7.31243 3.05014 7.2831 2.95238 7.27333 2.85462L7.25378 2.33649C7.19512 1.86725 6.9996 1.14382 6.76498 0.987409C6.74543 0.977633 6.73565 0.967857 6.69655 0.977633C5.82648 1.22203 4.09614 1.94545 3.90062 2.02366C3.88107 2.03344 3.86151 2.06276 3.91039 2.18985C4.17435 2.91327 4.48718 3.15767 4.53606 3.19678C4.7218 3.27499 4.80001 3.45095 4.80001 3.64647L4.57516 9.72712C4.56538 10.0009 4.35031 10.2159 4.08636 10.2159ZM3.90062 2.03344C3.89084 2.03344 3.89084 2.04321 3.89084 2.04321C3.89084 2.04321 3.89084 2.03344 3.90062 2.03344Z" fill="#EE2E24"/>
<path d="M4.35032 4.21345C4.1548 4.21345 3.96906 4.09614 3.90063 3.9104C3.80287 3.65622 3.92018 3.37272 4.17435 3.27496L7.15602 2.07252C7.4102 1.97476 7.6937 2.09207 7.79146 2.34624C7.88922 2.60042 7.77191 2.88392 7.51773 2.98168L4.53606 4.17435C4.47741 4.1939 4.41875 4.21345 4.35032 4.21345Z" fill="#EE2E24"/>
<path d="M9.35559 10.4114C9.31649 10.4114 9.27738 10.4114 9.23828 10.3919C8.97433 10.3235 8.81791 10.0595 8.88635 9.79556L9.46313 7.49821C9.4729 7.44933 9.50223 7.40045 9.53156 7.35157L12.5523 2.70798C12.6892 2.45381 13.09 2.12143 13.7841 2.24851H13.7939C14.3609 2.36583 19.6986 4.92713 21.3214 5.70921C21.3214 5.70921 21.3312 5.70921 21.3312 5.71898C21.5658 5.83629 21.9275 6.21756 21.8004 6.87255C21.7222 7.27336 20.9206 9.77601 20.8228 10.0595C20.7446 10.3137 20.4611 10.4603 20.2069 10.3723C19.9527 10.2941 19.8061 10.0106 19.8941 9.75646C20.2265 8.70065 20.7837 6.94098 20.8424 6.67703C20.8521 6.61837 20.8521 6.57927 20.8424 6.56949C18.2615 5.32794 14.0578 3.34342 13.5886 3.20656C13.4713 3.18701 13.4028 3.19678 13.3833 3.20656C13.3833 3.20656 13.3833 3.21633 13.3735 3.21633L10.3918 7.81104L9.83461 10.0302C9.77596 10.255 9.58044 10.4114 9.35559 10.4114Z" fill="#EE2E24"/>
<path d="M19.3857 9.46321L18.5645 9.1015L18.9849 8.17278L19.8061 8.53449L19.3857 9.46321ZM17.7531 8.73001L16.932 8.3683L17.3523 7.42981L18.1735 7.79152L17.7531 8.73001ZM16.1108 7.99681L15.2896 7.6351L15.71 6.70638L16.5311 7.0681L16.1108 7.99681ZM14.4782 7.26362L13.657 6.9019L14.0774 5.97319L14.8986 6.3349L14.4782 7.26362ZM12.8358 6.53042L12.0146 6.16871L12.435 5.23999L13.2562 5.6017L12.8358 6.53042Z" fill="#9A9A9C"/>
<path d="M14.7617 24C13.9699 24 13.002 24 11.8094 23.9903C8.83747 23.9707 5.88513 23.9218 5.8558 23.9218C5.79714 23.9218 5.74826 23.9121 5.69938 23.8925C5.62118 23.8632 4.88798 23.5894 4.6338 22.954C4.45784 22.5239 2.10183 15.6709 1.74989 14.664C1.42729 14.3512 0.723417 13.6375 0.606105 13.0998C0.479017 12.5719 0.576777 11.4477 0.596329 11.2326C0.596329 11.2131 0.596329 11.2033 0.606105 11.1837C0.684313 10.7634 1.06558 9.95197 1.90631 9.95197L22.2794 10.0106C22.3185 10.0106 22.3576 10.0106 22.387 10.0204C22.7193 10.0986 23.3059 10.3919 23.4134 10.998C23.5014 11.4868 23.4525 12.5426 23.4525 12.6599C23.4525 12.6697 23.4525 12.6697 23.4525 12.6795C23.4428 12.7968 23.3548 13.8037 22.69 14.3414C22.3185 14.8302 20.6664 19.0729 19.2684 22.9442V22.954C19.2391 23.0224 18.9849 23.6481 18.3104 23.9023C18.1735 23.9316 17.9976 24 14.7617 24ZM5.96334 22.9442C10.3039 23.0127 17.2741 23.0713 17.978 22.9638C18.2126 22.8562 18.3299 22.6216 18.3495 22.5923C18.4179 22.4163 19.1413 20.3927 19.9332 18.3495C21.6244 13.921 21.8884 13.7255 22.0644 13.5886C22.3576 13.3638 22.4554 12.7772 22.4749 12.611C22.4945 12.2004 22.5043 11.4575 22.4554 11.174C22.4456 11.1055 22.3185 11.0273 22.211 10.9882L1.90631 10.9296C1.69124 10.9296 1.59348 11.2717 1.57393 11.3499C1.53482 11.829 1.49572 12.6013 1.56415 12.8848C1.60325 13.0705 2.05295 13.618 2.50264 14.0383C2.5613 14.097 2.61018 14.1654 2.62973 14.2338C3.38248 16.4334 5.38655 22.2306 5.53319 22.5825C5.59185 22.7389 5.82647 22.8758 5.96334 22.9442Z" fill="#EE2E24"/>
<path d="M22.6705 13.9503H1.34908C1.07535 13.9503 0.860283 13.7352 0.860283 13.4615C0.860283 13.1878 1.07535 12.9727 1.34908 12.9727H22.6705C22.9442 12.9727 23.1593 13.1878 23.1593 13.4615C23.1593 13.7352 22.9442 13.9503 22.6705 13.9503Z" fill="#EE2E24"/>
<path d="M11.9267 21.468C11.653 21.468 11.4379 21.253 11.4379 20.9792V15.5243C11.4379 15.2505 11.653 15.0355 11.9267 15.0355C12.2004 15.0355 12.4155 15.2505 12.4155 15.5243V20.9792C12.4155 21.2432 12.2004 21.468 11.9267 21.468Z" fill="#EE2E24"/>
<path d="M15.2799 21.468C15.2212 21.468 15.1723 21.4583 15.1137 21.4387C14.8595 21.3507 14.7226 21.0672 14.8204 20.813L16.7756 15.3581C16.8636 15.1039 17.1471 14.9768 17.4012 15.0648C17.6554 15.1528 17.7923 15.4363 17.6945 15.6904L15.7393 21.1454C15.6709 21.341 15.4851 21.468 15.2799 21.468Z" fill="#EE2E24"/>
<path d="M8.89612 21.468C8.7006 21.468 8.51485 21.3507 8.43665 21.1454L6.4228 15.6904C6.32504 15.4363 6.46191 15.1528 6.71608 15.0648C6.97025 14.967 7.25376 15.1039 7.34174 15.3581L9.35559 20.813C9.45334 21.0672 9.31648 21.3507 9.06231 21.4387C9.01343 21.4583 8.95477 21.468 8.89612 21.468Z" fill="#EE2E24"/>
<path d="M22.8562 20.207C22.6216 20.207 22.4065 20.0506 22.3381 19.8062L19.7279 10.1866C19.6497 9.9031 19.8159 9.60004 20.1092 9.53161C20.3927 9.4534 20.6957 9.61959 20.7641 9.91287L23.3743 19.5324C23.4525 19.8159 23.2863 20.119 22.9931 20.1874C22.954 20.1972 22.9051 20.207 22.8562 20.207Z" fill="#F99B2A"/>
<path d="M1.22198 19.9234C1.18287 19.9234 1.14377 19.9234 1.09489 19.9137C0.801612 19.8452 0.625645 19.5519 0.694077 19.2684L2.88389 9.94217C2.95233 9.64889 3.2456 9.47292 3.52911 9.54135C3.82239 9.60978 3.99835 9.90306 3.92992 10.1866L1.74988 19.5031C1.69123 19.7475 1.46638 19.9234 1.22198 19.9234Z" fill="#F99B2A"/>
</svg>
