<svg width="25" height="24" viewBox="0 0 25 24" fill="none" xmlns="http://www.w3.org/2000/svg">
<path d="M8.65625 11.25H3.59375C1.88783 11.25 0.5 9.86217 0.5 8.15625V3.09375C0.5 1.38783 1.88783 0 3.59375 0H8.65625C10.3622 0 11.75 1.38783 11.75 3.09375V8.15625C11.75 9.86217 10.3622 11.25 8.65625 11.25ZM3.59375 1.5C2.71494 1.5 2 2.21494 2 3.09375V8.15625C2 9.03506 2.71494 9.75 3.59375 9.75H8.65625C9.53506 9.75 10.25 9.03506 10.25 8.15625V3.09375C10.25 2.21494 9.53506 1.5 8.65625 1.5H3.59375Z" fill="#EE2E24"/>
<path d="M21.4062 11.25H16.3438C14.6378 11.25 13.25 9.86217 13.25 8.15625V3.09375C13.25 1.38783 14.6378 0 16.3438 0H21.4062C23.1122 0 24.5 1.38783 24.5 3.09375V8.15625C24.5 9.86217 23.1122 11.25 21.4062 11.25ZM16.3438 1.5C15.4649 1.5 14.75 2.21494 14.75 3.09375V8.15625C14.75 9.03506 15.4649 9.75 16.3438 9.75H21.4062C22.2851 9.75 23 9.03506 23 8.15625V3.09375C23 2.21494 22.2851 1.5 21.4062 1.5H16.3438Z" fill="#EE2E24"/>
<path d="M18.875 24C15.7734 24 13.25 21.4766 13.25 18.375C13.25 15.2734 15.7734 12.75 18.875 12.75C21.9766 12.75 24.5 15.2734 24.5 18.375C24.5 21.4766 21.9766 24 18.875 24ZM18.875 14.25C16.6005 14.25 14.75 16.1005 14.75 18.375C14.75 20.6495 16.6005 22.5 18.875 22.5C21.1495 22.5 23 20.6495 23 18.375C23 16.1005 21.1495 14.25 18.875 14.25Z" fill="#F99B2A"/>
<path d="M8.65625 24H3.59375C1.88783 24 0.5 22.6122 0.5 20.9062V15.8438C0.5 14.1378 1.88783 12.75 3.59375 12.75H8.65625C10.3622 12.75 11.75 14.1378 11.75 15.8438V20.9062C11.75 22.6122 10.3622 24 8.65625 24ZM3.59375 14.25C2.71494 14.25 2 14.9649 2 15.8438V20.9062C2 21.7851 2.71494 22.5 3.59375 22.5H8.65625C9.53506 22.5 10.25 21.7851 10.25 20.9062V15.8438C10.25 14.9649 9.53506 14.25 8.65625 14.25H3.59375Z" fill="#EE2E24"/>
</svg>
