<svg width="16" height="21" viewBox="0 0 16 21" fill="none" xmlns="http://www.w3.org/2000/svg">
<g clip-path="url(#clip0_106_305)">
<path d="M1.9414 20.5C1.91406 20.4805 1.89062 20.4648 1.86327 20.4453C1.70702 20.3398 1.63671 20.1953 1.67968 20.0117C1.72265 19.8359 1.87109 19.7226 2.07031 19.7226C2.4414 19.7187 2.81249 19.7226 3.18359 19.7226C4.42578 19.7226 5.66797 19.7226 6.91406 19.7226C6.98437 19.7226 7.05078 19.7226 7.15234 19.7226C7.10156 19.6445 7.07031 19.5898 7.03515 19.5391C5.30078 17.0859 3.57421 14.6289 1.83593 12.1758C-0.33204 9.12109 0.195304 4.79297 3.03515 2.34766C4.26171 1.29297 5.67187 0.679687 7.28515 0.535156C7.32812 0.53125 7.37109 0.515625 7.41797 0.503906C7.75781 0.503906 8.09375 0.503906 8.43359 0.503906C8.82422 0.566406 9.21875 0.613281 9.60156 0.699219C12.4609 1.33203 14.7422 3.74219 15.2266 6.64843C15.5664 8.69922 15.1328 10.5742 13.9297 12.2734C13.5391 12.8242 13.1484 13.3789 12.7578 13.9297C12.6563 14.0742 12.5195 14.1523 12.3398 14.1094C12.168 14.0703 12.0508 13.957 12.043 13.7891C12.0391 13.6758 12.082 13.543 12.1445 13.4492C12.5156 12.9062 12.8945 12.3711 13.2813 11.8359C16.1211 7.90234 13.9922 2.40625 9.24609 1.41016C5.64062 0.65625 2.01171 3.11328 1.39062 6.72265C1.0664 8.60156 1.46874 10.3086 2.57031 11.8633C4.30468 14.3086 6.03125 16.7617 7.76172 19.2148C7.80469 19.2773 7.85156 19.3398 7.91406 19.4297C7.96484 19.3633 8.00781 19.3086 8.04687 19.2539C8.69141 18.3398 9.33594 17.4258 9.98438 16.5117C10.0273 16.4531 10.0664 16.3906 10.1133 16.3398C10.25 16.1953 10.4492 16.1797 10.6094 16.2852C10.7656 16.3906 10.8242 16.5898 10.7422 16.7695C10.7109 16.832 10.668 16.8906 10.6289 16.9492C10.0234 17.8047 9.42188 18.6601 8.81641 19.5156C8.77734 19.5742 8.73828 19.6328 8.67969 19.7187C8.77734 19.7187 8.84375 19.7187 8.91406 19.7187C10.5078 19.7187 12.1055 19.7187 13.6992 19.7187C13.9844 19.7187 14.1602 19.8672 14.1641 20.1055C14.168 20.3008 14.0352 20.4062 13.8906 20.5C9.91016 20.5 5.92578 20.5 1.9414 20.5Z" fill="#EE2E24"/>
<path d="M4.40234 7.92188C4.40234 5.98438 5.98047 4.40625 7.91797 4.40625C9.85547 4.40625 11.4336 5.98438 11.4336 7.92188C11.4336 9.85937 9.85547 11.4375 7.91797 11.4375C5.98047 11.4375 4.40234 9.85937 4.40234 7.92188ZM7.91797 5.1875C6.41406 5.1875 5.18359 6.41016 5.18359 7.91406C5.17969 9.41797 6.40235 10.6484 7.90625 10.6523C9.42188 10.6562 10.6524 9.42969 10.6524 7.91406C10.6484 6.41406 9.42579 5.1875 7.91797 5.1875Z" fill="#EE2E24"/>
<path d="M11.8242 15.1797C11.8281 15.3945 11.6484 15.5781 11.4336 15.5781C11.2266 15.5781 11.0508 15.4062 11.0469 15.1992C11.043 14.9844 11.2227 14.8008 11.4375 14.8008C11.6406 14.7969 11.8164 14.9688 11.8242 15.1797Z" fill="#EE2E24"/>
</g>
<defs>
<clipPath id="clip0_106_305">
<rect width="14.8398" height="20" fill="white" transform="translate(0.5 0.5)"/>
</clipPath>
</defs>
</svg>


<svg width="16" height="21" viewBox="0 0 16 21" fill="none" xmlns="http://www.w3.org/2000/svg">
<g clip-path="url(#clip0_106_305)">
<path d="M1.9414 20.5C1.91406 20.4805 1.89062 20.4648 1.86327 20.4453C1.70702 20.3398 1.63671 20.1953 1.67968 20.0117C1.72265 19.8359 1.87109 19.7226 2.07031 19.7226C2.4414 19.7187 2.81249 19.7226 3.18359 19.7226C4.42578 19.7226 5.66797 19.7226 6.91406 19.7226C6.98437 19.7226 7.05078 19.7226 7.15234 19.7226C7.10156 19.6445 7.07031 19.5898 7.03515 19.5391C5.30078 17.0859 3.57421 14.6289 1.83593 12.1758C-0.33204 9.12109 0.195304 4.79297 3.03515 2.34766C4.26171 1.29297 5.67187 0.679687 7.28515 0.535156C7.32812 0.53125 7.37109 0.515625 7.41797 0.503906C7.75781 0.503906 8.09375 0.503906 8.43359 0.503906C8.82422 0.566406 9.21875 0.613281 9.60156 0.699219C12.4609 1.33203 14.7422 3.74219 15.2266 6.64843C15.5664 8.69922 15.1328 10.5742 13.9297 12.2734C13.5391 12.8242 13.1484 13.3789 12.7578 13.9297C12.6563 14.0742 12.5195 14.1523 12.3398 14.1094C12.168 14.0703 12.0508 13.957 12.043 13.7891C12.0391 13.6758 12.082 13.543 12.1445 13.4492C12.5156 12.9062 12.8945 12.3711 13.2813 11.8359C16.1211 7.90234 13.9922 2.40625 9.24609 1.41016C5.64062 0.65625 2.01171 3.11328 1.39062 6.72265C1.0664 8.60156 1.46874 10.3086 2.57031 11.8633C4.30468 14.3086 6.03125 16.7617 7.76172 19.2148C7.80469 19.2773 7.85156 19.3398 7.91406 19.4297C7.96484 19.3633 8.00781 19.3086 8.04687 19.2539C8.69141 18.3398 9.33594 17.4258 9.98438 16.5117C10.0273 16.4531 10.0664 16.3906 10.1133 16.3398C10.25 16.1953 10.4492 16.1797 10.6094 16.2852C10.7656 16.3906 10.8242 16.5898 10.7422 16.7695C10.7109 16.832 10.668 16.8906 10.6289 16.9492C10.0234 17.8047 9.42188 18.6601 8.81641 19.5156C8.77734 19.5742 8.73828 19.6328 8.67969 19.7187C8.77734 19.7187 8.84375 19.7187 8.91406 19.7187C10.5078 19.7187 12.1055 19.7187 13.6992 19.7187C13.9844 19.7187 14.1602 19.8672 14.1641 20.1055C14.168 20.3008 14.0352 20.4062 13.8906 20.5C9.91016 20.5 5.92578 20.5 1.9414 20.5Z" fill="#EE2E24"/>
<path d="M4.40234 7.92188C4.40234 5.98438 5.98047 4.40625 7.91797 4.40625C9.85547 4.40625 11.4336 5.98438 11.4336 7.92188C11.4336 9.85937 9.85547 11.4375 7.91797 11.4375C5.98047 11.4375 4.40234 9.85937 4.40234 7.92188ZM7.91797 5.1875C6.41406 5.1875 5.18359 6.41016 5.18359 7.91406C5.17969 9.41797 6.40235 10.6484 7.90625 10.6523C9.42188 10.6562 10.6524 9.42969 10.6524 7.91406C10.6484 6.41406 9.42579 5.1875 7.91797 5.1875Z" fill="#EE2E24"/>
<path d="M11.8242 15.1797C11.8281 15.3945 11.6484 15.5781 11.4336 15.5781C11.2266 15.5781 11.0508 15.4062 11.0469 15.1992C11.043 14.9844 11.2227 14.8008 11.4375 14.8008C11.6406 14.7969 11.8164 14.9688 11.8242 15.1797Z" fill="#EE2E24"/>
</g>
<defs>
<clipPath id="clip0_106_305">
<rect width="14.8398" height="20" fill="white" transform="translate(0.5 0.5)"/>
</clipPath>
</defs>
</svg>