<svg width="25" height="25" viewBox="0 0 25 25" fill="none" xmlns="http://www.w3.org/2000/svg">
<g clip-path="url(#clip0_106_296)">
<path d="M11.3867 3.86666C12.8308 3.86534 14.2428 4.29236 15.4441 5.09369C16.6455 5.89502 17.5822 7.03467 18.1357 8.36845C18.6893 9.70224 18.8348 11.1702 18.5539 12.5867C18.273 14.0032 17.5782 15.3046 16.5576 16.3262C15.5369 17.3478 14.2362 18.0437 12.8199 18.3259C11.4037 18.6081 9.93558 18.4639 8.60129 17.9116C7.267 17.3593 6.1265 16.4236 5.32407 15.223C4.52165 14.0224 4.09334 12.6108 4.09334 11.1667C4.10209 9.23443 4.8731 7.38374 6.23878 6.01681C7.60446 4.64988 9.45445 3.87718 11.3867 3.86666V3.86666ZM11.3867 2.5C9.67257 2.5 7.99695 3.00829 6.57173 3.96059C5.1465 4.9129 4.03568 6.26645 3.37972 7.85007C2.72376 9.4337 2.55213 11.1763 2.88653 12.8574C3.22094 14.5386 4.04636 16.0829 5.25841 17.2949C6.47047 18.507 8.01472 19.3324 9.69589 19.6668C11.3771 20.0012 13.1196 19.8296 14.7033 19.1736C16.2869 18.5177 17.6404 17.4068 18.5927 15.9816C19.545 14.5564 20.0533 12.8808 20.0533 11.1667C20.0533 8.86812 19.1402 6.66372 17.5149 5.0384C15.8896 3.41309 13.6852 2.5 11.3867 2.5Z" fill="white"/>
<path d="M23.8333 22.6933L18.9199 17.7467L17.9733 18.6867L22.8866 23.6333C22.9483 23.6955 23.0217 23.7449 23.1025 23.7787C23.1833 23.8125 23.27 23.8301 23.3576 23.8304C23.4452 23.8307 23.532 23.8137 23.613 23.7805C23.6941 23.7473 23.7678 23.6984 23.8299 23.6367C23.8921 23.5749 23.9415 23.5016 23.9753 23.4208C24.0091 23.34 24.0267 23.2533 24.027 23.1657C24.0273 23.0781 24.0103 22.9913 23.9771 22.9102C23.9439 22.8292 23.895 22.7555 23.8333 22.6933Z" fill="white"/>
</g>
<defs>
<clipPath id="clip0_106_296">
<rect width="24" height="24" fill="white" transform="translate(0.5 0.5)"/>
</clipPath>
</defs>
</svg>
