<svg width="41" height="30" viewBox="0 0 41 30" fill="none" xmlns="http://www.w3.org/2000/svg">
<path d="M13.189 8.49963H6.40589C5.58793 8.49963 4.92244 9.16513 4.92244 9.98309V15.3381C4.92244 16.156 5.58793 16.8215 6.40589 16.8215H13.1889C14.0068 16.8215 14.6723 16.156 14.6723 15.3381V9.98309C14.6723 9.16513 14.0069 8.49963 13.189 8.49963ZM13.4904 9.98309V12.0696H10.3883V9.68147H13.1889C13.3552 9.68154 13.4904 9.81683 13.4904 9.98309ZM6.10435 15.3381V9.98309C6.10435 9.81683 6.23964 9.68154 6.40589 9.68154H9.20639V15.6396H6.40589C6.23964 15.6396 6.10435 15.5043 6.10435 15.3381ZM13.189 15.6396H10.3884V13.2515H13.4905V15.338C13.4904 15.5043 13.3552 15.6396 13.189 15.6396Z" fill="#F99B2A"/>
<path d="M4.92244 23.6492C4.92244 23.9756 5.18703 24.2401 5.51339 24.2401H22.9034C23.2298 24.2401 23.4943 23.9756 23.4943 23.6492C23.4943 23.3227 23.2298 23.0582 22.9034 23.0582H5.51339C5.18703 23.0582 4.92244 23.3227 4.92244 23.6492Z" fill="#F99B2A"/>
<path d="M5.51339 25.3087C5.18703 25.3087 4.92244 25.5732 4.92244 25.8997C4.92244 26.2261 5.18703 26.4906 5.51339 26.4906H14.2084C14.5348 26.4906 14.7993 26.2261 14.7993 25.8997C14.7993 25.5732 14.5348 25.3087 14.2084 25.3087H5.51339Z" fill="#F99B2A"/>
<path d="M16.0082 20.8297V19.401C16.0082 19.0746 15.7436 18.8101 15.4173 18.8101C15.0909 18.8101 14.8263 19.0746 14.8263 19.401V20.8297C14.8263 21.1561 15.0909 21.4207 15.4173 21.4207C15.7436 21.4207 16.0082 21.1561 16.0082 20.8297Z" fill="#EE2E24"/>
<path d="M18.7093 20.8297V19.401C18.7093 19.0746 18.4447 18.8101 18.1184 18.8101C17.792 18.8101 17.5274 19.0746 17.5274 19.401V20.8297C17.5274 21.1561 17.792 21.4207 18.1184 21.4207C18.4447 21.4207 18.7093 21.1561 18.7093 20.8297Z" fill="#EE2E24"/>
<path d="M21.4103 20.8297V19.401C21.4103 19.0746 21.1457 18.8101 20.8194 18.8101C20.493 18.8101 20.2284 19.0746 20.2284 19.401V20.8297C20.2284 21.1561 20.493 21.4207 20.8194 21.4207C21.1457 21.4207 21.4103 21.1561 21.4103 20.8297Z" fill="#EE2E24"/>
<path d="M24.1115 20.8297V19.401C24.1115 19.0746 23.8469 18.8101 23.5205 18.8101C23.1942 18.8101 22.9296 19.0746 22.9296 19.401V20.8297C22.9296 21.1561 23.1942 21.4207 23.5205 21.4207C23.8469 21.4207 24.1115 21.1561 24.1115 20.8297Z" fill="#EE2E24"/>
<path d="M27.4313 19.401V20.8297C27.4313 21.1561 27.6959 21.4207 28.0222 21.4207C28.3486 21.4207 28.6132 21.1561 28.6132 20.8297V19.401C28.6132 19.0746 28.3486 18.8101 28.0222 18.8101C27.6959 18.8101 27.4313 19.0746 27.4313 19.401Z" fill="#EE2E24"/>
<path d="M30.1323 19.401V20.8297C30.1323 21.1561 30.3969 21.4207 30.7233 21.4207C31.0497 21.4207 31.3142 21.1561 31.3142 20.8297V19.401C31.3142 19.0746 31.0497 18.8101 30.7233 18.8101C30.3969 18.8101 30.1323 19.0746 30.1323 19.401Z" fill="#EE2E24"/>
<path d="M32.8334 19.401V20.8297C32.8334 21.1561 33.098 21.4207 33.4244 21.4207C33.7507 21.4207 34.0153 21.1561 34.0153 20.8297V19.401C34.0153 19.0746 33.7507 18.8101 33.4244 18.8101C33.098 18.8101 32.8334 19.0746 32.8334 19.401Z" fill="#EE2E24"/>
<path d="M5.51339 21.4207C5.83976 21.4207 6.10435 21.1561 6.10435 20.8297V19.401C6.10435 19.0746 5.83976 18.8101 5.51339 18.8101C5.18703 18.8101 4.92244 19.0746 4.92244 19.401V20.8297C4.92244 21.1561 5.18703 21.4207 5.51339 21.4207Z" fill="#EE2E24"/>
<path d="M8.80541 20.8297V19.401C8.80541 19.0746 8.54082 18.8101 8.21446 18.8101C7.88809 18.8101 7.6235 19.0746 7.6235 19.401V20.8297C7.6235 21.1561 7.88809 21.4207 8.21446 21.4207C8.54082 21.4207 8.80541 21.1561 8.80541 20.8297Z" fill="#EE2E24"/>
<path d="M11.5065 20.8297V19.401C11.5065 19.0746 11.2419 18.8101 10.9155 18.8101C10.5891 18.8101 10.3246 19.0746 10.3246 19.401V20.8297C10.3246 21.1561 10.5891 21.4207 10.9155 21.4207C11.2419 21.4207 11.5065 21.1561 11.5065 20.8297Z" fill="#EE2E24"/>
<path d="M40.8379 6.00363C40.8379 2.69318 38.1447 0 34.8343 0C31.8692 0 29.401 2.16116 28.9179 4.99065H13.6264C13.3001 4.99065 13.0355 5.25517 13.0355 5.58161C13.0355 5.90805 13.3001 6.17256 13.6264 6.17256H28.833C28.9234 9.42589 31.6086 12.006 34.832 12.0072C34.8328 12.0072 34.8335 12.0073 34.8343 12.0073C34.8351 12.0073 34.8343 12.0073 34.8343 12.0073C34.8349 12.0073 34.8356 12.0072 34.8363 12.0072C35.6995 12.0069 36.5365 11.817 37.2604 11.4967V21.4347C37.2604 21.7612 37.525 22.0257 37.8514 22.0257C38.1778 22.0257 38.4424 21.7612 38.4424 21.4347V10.7986C39.8962 9.70191 40.8379 7.9608 40.8379 6.00363ZM34.8343 1.18191C37.493 1.18191 39.656 3.34496 39.656 6.00363C39.656 8.66742 37.4869 10.8253 34.8343 10.8253C32.1235 10.8253 29.9068 8.56901 30.0175 5.8083C30.1412 3.15294 32.3101 1.18191 34.8343 1.18191Z" fill="#EE2E24"/>
<path d="M33.1996 8.27807C33.3996 8.60222 33.8503 8.65549 34.1204 8.38562L37.9427 4.56324C38.1734 4.33238 38.1734 3.95826 37.9427 3.72748C37.7119 3.49677 37.3377 3.49677 37.107 3.72748L33.813 7.02154L32.5384 4.95619C32.3671 4.67844 32.0029 4.59232 31.7252 4.76362C31.4474 4.93507 31.3612 5.29918 31.5326 5.57685L33.1996 8.27807Z" fill="#F99B2A"/>
<path d="M37.8514 23.6018C37.525 23.6018 37.2604 23.8663 37.2604 24.1927V26.63C37.2604 27.8365 36.2788 28.8182 35.0722 28.8182H3.86558C2.65893 28.8182 1.67731 27.8365 1.67731 26.63V8.36102C1.67731 7.15445 2.65893 6.17275 3.86558 6.17275H10.8686C11.195 6.17275 11.4596 5.90824 11.4596 5.5818C11.4596 5.25536 11.195 4.99084 10.8686 4.99084H3.86558C2.0073 4.99084 0.495399 6.50267 0.495399 8.36102V26.6299C0.495399 28.4882 2.0073 30 3.86558 30H35.0722C36.9305 30 38.4424 28.4881 38.4424 26.6299V24.1926C38.4424 23.8663 38.1778 23.6018 37.8514 23.6018Z" fill="#EE2E24"/>
<path d="M34.7302 15.9131V14.1662C34.7302 13.6653 34.3226 13.2577 33.8216 13.2577H27.7868C27.2858 13.2577 26.8782 13.6653 26.8782 14.1662V15.9131C26.8782 16.4141 27.2858 16.8217 27.7868 16.8217H33.8216C34.3226 16.8217 34.7302 16.4141 34.7302 15.9131ZM33.5483 15.6398H28.06V14.4396H33.5483V15.6398Z" fill="#EE2E24"/>
</svg>
