<svg width="32" height="34" viewBox="0 0 32 34" fill="none" xmlns="http://www.w3.org/2000/svg">
<g clip-path="url(#clip0_1_563)">
<path d="M2.72206 34C2.6623 33.9735 2.60917 33.9469 2.54941 33.927C1.54003 33.6215 0.922455 32.8047 0.922455 31.7489C0.922455 27.6981 0.922455 23.6473 0.922455 19.5965C0.922455 15.7383 0.929095 11.8735 0.929095 8.01527C0.929095 7.33128 1.13495 6.7137 1.67949 6.27542C1.94511 6.05628 2.27714 5.90355 2.60253 5.78402C2.84824 5.69769 2.9412 5.60472 2.94785 5.32581C2.98105 3.65902 4.01699 2.40394 5.59081 2.09183C6.84589 1.83949 8.1541 2.3973 8.87792 3.47972C8.93769 3.57269 8.99745 3.66566 9.06386 3.78519C9.17675 3.75863 9.28964 3.7387 9.40253 3.7055C12.2779 2.83558 15.1533 1.95902 18.0287 1.0891C18.135 1.05589 18.2412 1.02269 18.3475 0.996126C18.6529 0.936361 18.9053 1.07581 18.9783 1.34144C19.0514 1.6137 18.9119 1.86605 18.6131 1.95902C17.9955 2.15824 17.3646 2.33753 16.7404 2.53011C13.7455 3.43988 10.7572 4.343 7.7623 5.25277C7.70253 5.27269 7.63613 5.29925 7.55644 5.33245C7.55644 6.33519 7.55644 7.33792 7.55644 8.3473C7.55644 9.21058 7.55644 10.0739 7.55644 10.9371C7.55644 12.0528 6.9787 12.916 6.01581 13.2614C5.04628 13.6067 4.07675 13.2946 3.3662 12.418C3.33964 12.3848 3.30644 12.3582 3.20683 12.252C3.31308 12.6106 3.38613 12.8828 3.46581 13.1551C4.15644 15.4395 4.8537 17.7239 5.54433 20.0016C5.54433 20.0149 5.55097 20.0215 5.55097 20.0348C5.67714 20.4532 5.57089 20.7254 5.25214 20.825C4.94667 20.918 4.71425 20.7453 4.58144 20.3137C4.41542 19.7758 4.25605 19.2313 4.09667 18.6934C3.41933 16.4621 2.74199 14.2309 2.06464 11.9996C2.03144 11.9 1.99824 11.8004 1.91191 11.7075C1.91191 11.8137 1.91191 11.9133 1.91191 12.0196C1.91191 18.5739 1.91191 25.1215 1.91191 31.6758C1.91191 32.5059 2.39667 32.9973 3.22675 32.9973C9.70136 32.9973 16.176 32.9973 22.6506 32.9973C23.3611 32.9973 23.7795 32.6653 23.9521 31.968C24.0385 31.6227 24.2709 31.4633 24.5764 31.5364C24.8553 31.6028 25.0014 31.8618 24.9283 32.1871C24.7557 33.0106 24.2775 33.575 23.4873 33.8739C23.3744 33.9137 23.2615 33.9602 23.1553 34C16.3553 34 9.54199 34 2.72206 34ZM8.06777 4.11058C7.52988 3.2473 6.54706 2.86878 5.59081 3.12777C4.62792 3.38675 3.9705 4.22347 3.95722 5.29261C3.9373 7.20511 3.94394 9.12425 3.95722 11.0368C3.96386 11.827 4.51503 12.3848 5.25214 12.3848C5.99589 12.3848 6.56035 11.8004 6.56035 11.0102C6.56699 9.15081 6.56035 7.29144 6.56035 5.43206C6.56035 5.08011 6.42089 4.90081 6.15527 4.90081C5.88964 4.90081 5.75683 5.07347 5.75683 5.43206C5.75683 6.52777 5.75683 7.62347 5.75683 8.71917C5.75683 9.21722 5.76347 9.71527 5.75019 10.2133C5.73691 10.625 5.40488 10.8707 5.05956 10.7313C4.79394 10.6184 4.74081 10.3926 4.74081 10.1336C4.74745 8.53988 4.7541 6.94613 4.7541 5.35238C4.7541 4.74808 4.98652 4.29652 5.53105 4.03753C6.08222 3.77855 6.60019 3.8516 7.08496 4.23675C7.16464 4.29652 7.3041 4.32972 7.4037 4.3098C7.62949 4.26331 7.83535 4.18363 8.06777 4.11058ZM2.92792 6.79339C2.2041 6.86644 1.79238 7.55706 2.01816 8.32738C2.27714 9.20394 2.54941 10.0805 2.81503 10.9571C2.83495 11.0168 2.86816 11.0766 2.92792 11.2028C2.92792 9.68206 2.92792 8.23441 2.92792 6.79339Z" fill="#EE2E24"/>
<path d="M22.3119 0C22.3385 0.0132813 22.365 0.0398437 22.3982 0.0464844C23.2947 0.252344 23.8326 0.816797 24.0982 1.68672C26.3228 9.02461 28.5475 16.3559 30.7721 23.6937C30.8916 24.0855 31.0311 24.4773 31.0709 24.8824C31.1705 25.9383 30.5396 26.8281 29.4838 27.1602C28.1025 27.5918 26.7146 28.0102 25.3268 28.4152C25.0545 28.4949 24.9549 28.6078 24.9748 28.8934C25.0014 29.2586 24.9881 29.6238 24.9748 29.9891C24.9682 30.3078 24.7756 30.5004 24.49 30.5004C24.2111 30.5004 23.9986 30.3078 23.9853 29.9957C23.9721 29.6238 23.9853 29.2453 23.9853 28.8336C23.1486 29.0859 22.3451 29.325 21.5482 29.5707C17.9889 30.6531 14.4228 31.7289 10.8635 32.8113C9.48885 33.223 8.34666 32.6188 7.93495 31.2574C7.05838 28.3621 6.18182 25.4668 5.3119 22.5648C5.25877 22.3988 5.23885 22.1664 5.31854 22.0336C5.39158 21.9008 5.63065 21.768 5.76346 21.7945C5.92948 21.8277 6.14198 21.9937 6.20838 22.1531C6.39432 22.6113 6.51385 23.0961 6.65995 23.5742C7.4037 26.0246 8.14745 28.4816 8.8912 30.932C9.15682 31.802 9.71463 32.1074 10.5912 31.8484C16.0697 30.1949 21.5416 28.5348 27.0201 26.8746C27.7174 26.6621 28.4146 26.4563 29.1119 26.2371C29.9353 25.9781 30.2475 25.3871 30.0018 24.5703C27.724 17.0664 25.4529 9.5625 23.1752 2.05859C22.9029 1.16211 22.3252 0.856641 21.4221 1.13555C21.1564 1.21523 20.8975 1.30156 20.6252 1.37461C20.3064 1.46094 20.0475 1.32812 19.9611 1.04922C19.8748 0.776953 20.0275 0.517969 20.3396 0.411719C20.758 0.272266 21.1764 0.146094 21.5947 0.0132813C21.8271 0 22.0662 0 22.3119 0Z" fill="#EE2E24"/>
<path d="M13.4865 8.14811C13.8053 8.16803 14.1174 8.16139 14.4162 8.22115C14.8146 8.30084 14.9873 8.59303 14.9076 8.94498C14.8213 9.31686 14.5822 9.42311 14.1572 9.40983C13.8053 9.39655 13.44 9.46295 13.1014 9.55592C12.849 9.62233 12.7096 9.83483 12.7494 10.1204C12.7893 10.4126 12.9619 10.5852 13.2408 10.6184C13.6592 10.6715 14.0775 10.7047 14.4893 10.7512C16.1959 10.9438 16.6142 13.0489 15.9568 13.8989C15.8771 14.0051 15.7975 14.118 15.6978 14.1977C15.4853 14.3505 15.3658 14.4899 15.4521 14.7887C15.5318 15.061 15.2928 15.3532 15.0072 15.4395C14.7283 15.5258 14.3963 15.4063 14.29 15.1141C14.1971 14.8485 14.0377 14.8352 13.7986 14.802C13.46 14.7489 13.108 14.6493 12.8025 14.4899C12.4771 14.3172 12.4041 13.9719 12.5436 13.6598C12.6963 13.3145 12.9951 13.2149 13.367 13.4274C13.7521 13.6532 14.1373 13.6731 14.5424 13.5071C14.8146 13.3942 15.0271 13.2282 15.0205 12.8962C15.0072 12.5508 14.9143 12.2255 14.5623 12.0794C14.3498 11.993 14.1174 11.9731 13.885 11.9399C13.5463 11.8934 13.201 11.8735 12.8689 11.8137C12.1451 11.6809 11.7533 11.1895 11.574 10.5055C11.3947 9.82154 11.5674 9.24381 12.1053 8.77233C12.185 8.70592 12.2514 8.55983 12.2381 8.46022C12.165 7.98209 12.2912 7.66998 12.6498 7.57037C12.9951 7.47076 13.2674 7.63678 13.4533 8.06842C13.4533 8.1149 13.4799 8.14147 13.4865 8.14811Z" fill="#F99B2A"/>
<path d="M10.7838 25.3273C10.4584 25.3207 10.2924 25.1679 10.2459 24.909C10.1994 24.6301 10.3322 24.4375 10.6045 24.3512C11.2154 24.1586 11.8264 23.9726 12.4439 23.7867C16.5013 22.5582 20.5588 21.323 24.6162 20.0945C24.6826 20.0746 24.7424 20.0547 24.8088 20.0414C25.1674 19.9418 25.4197 20.048 25.5127 20.3269C25.6123 20.6258 25.4662 20.8781 25.101 20.9976C23.5404 21.4758 21.9732 21.9539 20.4127 22.4254C17.3381 23.3617 14.2635 24.2914 11.1889 25.2211C11.0295 25.2676 10.8767 25.3008 10.7838 25.3273Z" fill="#F99B2A"/>
<path d="M9.93378 22.5848C9.66152 22.5649 9.46894 22.4454 9.41581 22.1797C9.36269 21.8875 9.4955 21.6817 9.77441 21.5954C10.4916 21.3696 11.2088 21.1504 11.926 20.9379C15.8639 19.7426 19.8084 18.5473 23.7463 17.352C23.8525 17.3188 23.9588 17.2856 24.065 17.2657C24.3705 17.2125 24.6295 17.352 24.6826 17.6243C24.7424 17.9165 24.6162 18.1223 24.3373 18.2153C23.8857 18.3614 23.4342 18.5008 22.976 18.6403C18.7392 19.9286 14.5025 21.2102 10.2658 22.4918C10.1529 22.525 10.04 22.5516 9.93378 22.5848Z" fill="#F99B2A"/>
<path d="M9.13028 19.8156C8.81817 19.8156 8.63224 19.6894 8.57911 19.4304C8.51935 19.1382 8.65216 18.9324 8.93771 18.846C9.4756 18.68 10.0135 18.514 10.5514 18.348C14.6951 17.0929 18.8389 15.8378 22.976 14.5828C23.4608 14.4367 23.7397 14.5164 23.8393 14.8285C23.9455 15.1738 23.7662 15.3929 23.2615 15.5457C18.6994 16.9269 14.1307 18.3148 9.56857 19.6961C9.40919 19.7425 9.24982 19.7824 9.13028 19.8156Z" fill="#F99B2A"/>
<path d="M11.5807 28.0898C11.3084 28.0566 11.1357 27.9371 11.0892 27.6848C11.0361 27.3926 11.1557 27.1867 11.4412 27.0937C12.0654 26.9012 12.6896 26.7152 13.3139 26.5293C17.358 25.3008 21.4088 24.0723 25.4529 22.8437C25.5459 22.8172 25.6455 22.784 25.7385 22.7641C26.0307 22.7109 26.2697 22.8371 26.3494 23.0895C26.4291 23.3551 26.3029 23.6141 26.0107 23.7137C25.6455 23.8398 25.2736 23.9461 24.9018 24.059C20.5787 25.3738 16.2623 26.682 11.9392 27.9902C11.8131 28.0301 11.6803 28.0633 11.5807 28.0898Z" fill="#F99B2A"/>
</g>
<defs>
<clipPath id="clip0_1_563">
<rect width="30.1551" height="34" fill="white" transform="translate(0.922455)"/>
</clipPath>
</defs>
</svg>
