<svg width="24" height="30" viewBox="0 0 24 30" fill="none" xmlns="http://www.w3.org/2000/svg">
<path d="M9.61586 27.0352C9.52211 26.8067 9.28188 26.6544 9.03579 26.6778C8.78969 26.6954 8.58461 26.8653 8.5143 27.0997C8.44399 27.334 8.53774 27.5919 8.73696 27.7383C8.93032 27.879 9.20571 27.8848 9.40493 27.7501C9.62758 27.5919 9.72133 27.2872 9.61586 27.0352Z" fill="#EE2E24"/>
<path d="M12.0593 3.36914H12.5515C12.8737 3.36914 13.1374 3.10547 13.1374 2.7832C13.1374 2.46094 12.8737 2.19727 12.5515 2.19727H12.0593C11.737 2.19727 11.4734 2.46094 11.4734 2.7832C11.4734 3.10547 11.737 3.36914 12.0593 3.36914Z" fill="#F99B2A"/>
<path d="M5.59641 3.36914H9.58078C9.90305 3.36914 10.1667 3.10547 10.1667 2.7832C10.1667 2.46094 9.90305 2.19727 9.58078 2.19727H5.59641C5.27414 2.19727 5.01047 2.46094 5.01047 2.7832C5.01047 3.10547 5.27414 3.36914 5.59641 3.36914Z" fill="#F99B2A"/>
<path d="M15.6745 12.17C14.7311 12.17 13.9694 12.9376 13.9694 13.8751C13.9694 14.8126 14.7311 15.5861 15.6745 15.5861C16.6178 15.5861 17.3795 14.8185 17.3795 13.881C17.3795 12.9435 16.612 12.17 15.6745 12.17ZM15.6745 14.4142C15.3815 14.4142 15.1413 14.1739 15.1413 13.881C15.1413 13.588 15.3815 13.3478 15.6745 13.3478C15.9674 13.3478 16.2077 13.588 16.2077 13.881C16.2077 14.1739 15.9674 14.4142 15.6745 14.4142Z" fill="#F99B2A"/>
<path d="M10.0847 13.3887C10.0261 13.3711 9.97337 13.3477 9.92063 13.3301V12C10.0202 12.0469 10.0847 12.1055 10.1257 12.1582C10.3132 12.4219 10.6765 12.4863 10.9402 12.2988C11.2038 12.1113 11.2683 11.748 11.0808 11.4844C10.8523 11.1562 10.4421 10.8809 9.91477 10.7754V10.7578C9.91477 10.4355 9.6511 10.1719 9.32884 10.1719C9.00657 10.1719 8.7429 10.4355 8.7429 10.7578V10.8164C8.69016 10.8281 8.64329 10.8398 8.59055 10.8574C7.94602 11.0508 7.45384 11.6777 7.4011 12.3809C7.34837 13.0781 7.71751 13.6816 8.39134 13.998C8.47337 14.0332 8.59055 14.0859 8.7429 14.1445V15.791C8.56126 15.7207 8.40305 15.6211 8.29759 15.4863C8.09251 15.2344 7.72337 15.1934 7.47141 15.3984C7.21946 15.6035 7.17845 15.9727 7.38352 16.2246C7.73509 16.6582 8.23899 16.8984 8.7429 17.0156C8.74876 17.332 9.01243 17.584 9.32884 17.584C9.63352 17.584 9.88548 17.3496 9.91477 17.0566C10.8054 16.9102 11.4324 16.3301 11.532 15.5273C11.655 14.6133 11.0574 13.7344 10.0847 13.3887ZM8.57884 12.4687C8.59055 12.3281 8.65501 12.1934 8.74876 12.0996V12.8496C8.62571 12.75 8.56712 12.6211 8.57884 12.4687ZM10.3777 15.3809C10.3484 15.6035 10.1902 15.7676 9.92649 15.8555V14.6016C10.2722 14.8066 10.407 15.1289 10.3777 15.3809Z" fill="#F99B2A"/>
<path d="M21.0358 5.32617H17.8835V3.78516C17.8835 1.69922 16.1842 0 14.0983 0H4.04947C1.96353 0 0.264313 1.69922 0.264313 3.78516V26.2148C0.264313 28.3008 1.96353 30 4.04947 30H14.0983C16.1842 30 17.8835 28.3008 17.8835 26.2148V22.4297H21.0358C22.1549 22.4297 23.069 21.5156 23.069 20.3965V7.35938C23.069 6.23438 22.1608 5.32617 21.0358 5.32617ZM14.0983 28.8281H4.04947C2.60806 28.8281 1.43619 27.6562 1.43619 26.2148V25.6582H16.7116V26.2148C16.7116 27.6562 15.5397 28.8281 14.0983 28.8281ZM16.7116 24.4863H1.43619V3.78516C1.43619 2.34375 2.60806 1.17188 4.04947 1.17188H14.0983C15.5397 1.17188 16.7116 2.34375 16.7116 3.78516V5.32617H6.18228V5.0918C6.18228 4.76953 5.91861 4.50586 5.59634 4.50586C5.27408 4.50586 5.01041 4.76953 5.01041 5.0918V22.5938C5.01041 22.916 5.27408 23.1797 5.59634 23.1797C5.91861 23.1797 6.18228 22.916 6.18228 22.5938V22.4355H16.7116V24.4863ZM6.18228 9.07617H16.9577C17.1979 10.2598 18.1354 11.1855 19.3249 11.4082V16.3535C18.1354 16.5703 17.1979 17.502 16.9577 18.6855H6.18228V9.07617ZM21.8971 20.3965C21.8971 20.8711 21.5104 21.2578 21.0358 21.2578H6.18228V19.8516H17.485C17.8073 19.8516 18.071 19.5879 18.071 19.2656C18.071 18.2754 18.8737 17.4727 19.8639 17.4727C19.8756 17.4727 19.8874 17.4727 19.8991 17.4727C20.0514 17.4785 20.2096 17.4141 20.321 17.3027C20.4323 17.1914 20.4967 17.0391 20.4967 16.8867V10.8691C20.4967 10.7109 20.4323 10.5586 20.321 10.4531C20.2096 10.3418 20.0573 10.2832 19.8991 10.2832C19.8874 10.2832 19.8756 10.2832 19.8639 10.2832C18.8737 10.2832 18.071 9.48047 18.071 8.49023C18.071 8.16797 17.8073 7.9043 17.485 7.9043H6.18228V6.49805H21.0417C21.5163 6.49805 21.903 6.88477 21.903 7.35938L21.8971 20.3965Z" fill="#EE2E24"/>
</svg>
