<svg width="36" height="32" viewBox="0 0 36 32" fill="none" xmlns="http://www.w3.org/2000/svg">
<g clip-path="url(#clip0_1_593)">
<path d="M0.93689 1.79963C0.963551 1.72631 0.990212 1.65299 1.01021 1.57967C1.29681 0.613206 2.08998 0.00666528 3.10977 0.00666528C5.31598 0 7.52885 0 9.74172 0C14.5607 0 19.3797 0 24.2054 0C25.6717 0 26.5382 0.873151 26.5382 2.34618C26.5382 7.74505 26.5382 13.1439 26.5382 18.5428C26.5382 18.7428 26.5382 18.9427 26.5382 19.196C26.6649 19.196 26.7848 19.196 26.8981 19.196C28.6844 19.196 30.4774 19.196 32.2637 19.196C33.3435 19.196 33.99 19.8559 34.01 20.9423C34.0167 21.4622 33.9767 21.9621 33.5968 22.3887C34.1233 23.0285 34.0367 23.7551 33.9433 24.5149C34.3366 24.5616 34.8032 24.4082 35.0698 24.8615C35.0698 26.6411 35.0698 28.4141 35.0698 30.1937C34.5232 31.6334 34.01 31.9933 32.4637 31.9933C26.3983 31.9933 20.3395 31.9933 14.2741 31.9933C10.5749 31.9933 6.87565 31.9933 3.18309 31.9933C2.29661 31.9933 1.62341 31.6201 1.19684 30.8402C1.09019 30.6403 1.0302 30.407 0.95022 30.1937C0.93689 20.729 0.93689 11.2643 0.93689 1.79963ZM22.5057 30.9269C22.4191 30.6003 22.2858 30.3137 22.2791 30.0271C22.2591 28.3741 22.2658 26.7144 22.2724 25.0614C22.2724 24.7415 22.4791 24.5482 22.799 24.5282C22.999 24.5149 23.1923 24.5282 23.3922 24.5282C23.3056 23.7617 23.1989 23.0285 23.7255 22.402C23.2189 21.6821 23.1856 20.8956 23.4855 20.1358C23.8321 19.276 24.6186 19.1293 25.4451 19.1827C25.4451 15.2568 25.4451 11.371 25.4451 7.47844C17.6267 7.47844 9.82837 7.47844 2.00333 7.47844C2.00333 7.61841 2.00333 7.73839 2.00333 7.86503C2.00333 15.1169 2.00333 22.3753 2.00333 29.6272C2.00333 30.5336 2.38992 30.9202 3.30306 30.9202C8.94855 30.9202 14.5874 30.9202 20.2329 30.9202C20.986 30.9269 21.7459 30.9269 22.5057 30.9269ZM25.4651 6.392C25.4651 4.99229 25.4651 3.62591 25.4651 2.26619C25.4651 1.49969 25.0385 1.07311 24.2654 1.07311C17.2468 1.07311 10.2283 1.07311 3.20975 1.07311C2.43658 1.07311 2.01 1.49969 2.01 2.25953C2.01 3.53926 2.01 4.81233 2.01 6.09206C2.01 6.18538 2.02333 6.28536 2.03 6.392C9.83504 6.392 17.6334 6.392 25.4651 6.392ZM23.3322 25.608C23.3322 27.001 23.3322 28.3541 23.3322 29.7071C23.3322 30.507 23.7455 30.9269 24.5386 30.9269C27.2914 30.9269 30.0442 30.9269 32.7969 30.9269C33.5701 30.9269 33.99 30.5003 33.99 29.7271C33.99 28.4607 33.99 27.1943 33.99 25.9279C33.99 25.8213 33.9833 25.7146 33.9767 25.608C30.4241 25.608 26.8981 25.608 23.3322 25.608ZM28.6978 21.8621C29.8975 21.8621 31.0973 21.8621 32.297 21.8621C32.7303 21.8621 32.9236 21.6622 32.9302 21.2289C32.9302 21.0956 32.9369 20.9623 32.9302 20.829C32.9102 20.4757 32.7169 20.2691 32.3637 20.2691C29.8975 20.2624 27.4314 20.2624 24.9652 20.2691C24.612 20.2691 24.4187 20.4757 24.3987 20.829C24.392 20.9423 24.3987 21.0489 24.3987 21.1623C24.4053 21.6821 24.5786 21.8621 25.0985 21.8621C26.2983 21.8621 27.498 21.8621 28.6978 21.8621ZM28.6311 24.5282C29.8509 24.5282 31.0773 24.5282 32.297 24.5282C32.7303 24.5282 32.9236 24.3283 32.9302 23.895C32.9302 23.7617 32.9369 23.6284 32.9302 23.4951C32.9102 23.1418 32.7169 22.9352 32.3637 22.9352C29.8975 22.9286 27.4314 22.9286 24.9652 22.9352C24.612 22.9352 24.4187 23.1418 24.3987 23.5018C24.392 23.6151 24.3987 23.7217 24.3987 23.835C24.3987 24.3549 24.5786 24.5349 25.0985 24.5349C26.2783 24.5282 27.4514 24.5282 28.6311 24.5282Z" fill="#EE2E24"/>
<path d="M22.2658 18.676C22.2591 23.3817 18.4132 27.2076 13.7009 27.1942C9.01518 27.1809 5.19598 23.3417 5.20265 18.6494C5.20931 13.9437 9.05518 10.1178 13.7675 10.1311C18.4599 10.1511 22.2724 13.9837 22.2658 18.676ZM21.1993 18.6627C21.1993 14.5502 17.8533 11.2042 13.7409 11.2042C9.63506 11.2042 6.27576 14.5502 6.26909 18.656C6.26242 22.7818 9.62172 26.1411 13.7475 26.1345C17.86 26.1211 21.1993 22.7752 21.1993 18.6627Z" fill="#F99B2A"/>
<path d="M16.9269 5.33214C16.407 5.33214 15.8804 5.33881 15.3605 5.33214C14.4474 5.31881 13.7409 4.62562 13.7342 3.73914C13.7342 2.85266 14.4341 2.14614 15.3472 2.13281C16.4003 2.12614 17.4534 2.12614 18.5132 2.13281C19.433 2.13947 20.1329 2.83266 20.1396 3.72581C20.1462 4.61229 19.4397 5.31881 18.5266 5.33214C17.9867 5.33881 17.4534 5.33214 16.9269 5.33214ZM16.9336 4.2657C17.4335 4.2657 17.9333 4.2657 18.4332 4.2657C18.8198 4.2657 19.0664 4.05241 19.0664 3.73247C19.0664 3.41254 18.8265 3.20592 18.4332 3.19925C17.4335 3.19259 16.4337 3.19259 15.4339 3.19925C15.0406 3.19925 14.8073 3.40587 14.8073 3.73247C14.8073 4.05241 15.0473 4.25903 15.4405 4.2657C15.9338 4.27236 16.4337 4.2657 16.9336 4.2657Z" fill="#F99B2A"/>
<path d="M6.2691 3.7326C6.2691 4.61242 5.54258 5.33894 4.6561 5.33227C3.78961 5.33227 3.07643 4.61242 3.06976 3.73927C3.06976 2.85279 3.79628 2.13293 4.68276 2.13293C5.54925 2.1396 6.2691 2.85945 6.2691 3.7326ZM5.20265 3.73927C5.20265 3.45266 4.96937 3.20605 4.67609 3.20605C4.38949 3.20605 4.14287 3.43933 4.14287 3.7326C4.14287 4.01921 4.37616 4.26583 4.66943 4.26583C4.94937 4.26583 5.19599 4.02588 5.20265 3.73927Z" fill="#F99B2A"/>
<path d="M24.3986 3.73921C24.3986 4.61902 23.6588 5.34554 22.779 5.33221C21.9125 5.31888 21.1993 4.59903 21.206 3.72588C21.206 2.83939 21.9392 2.11954 22.8256 2.13287C23.6921 2.1462 24.4053 2.87272 24.3986 3.73921ZM23.3322 3.71921C23.3255 3.4326 23.0789 3.19265 22.7856 3.19932C22.499 3.20598 22.2591 3.4526 22.2658 3.74587C22.2724 4.03248 22.519 4.27243 22.8123 4.26576C23.0989 4.2591 23.3389 4.00582 23.3322 3.71921Z" fill="#F99B2A"/>
<path d="M13.7409 12.7974C16.9736 12.7974 19.5997 15.4435 19.593 18.6828C19.5863 21.9155 16.9469 24.5416 13.7009 24.5283C10.4816 24.5216 7.86212 21.8821 7.86212 18.6628C7.86879 15.4301 10.5082 12.7974 13.7409 12.7974ZM18.5332 18.6828C18.5399 16.03 16.3937 13.8771 13.7342 13.8705C11.1148 13.8638 8.94856 16.01 8.9419 18.6162C8.92857 21.2823 11.0615 23.4551 13.7076 23.4618C16.3604 23.4751 18.5266 21.3289 18.5332 18.6828Z" fill="#F99B2A"/>
<path d="M17.4601 18.8228C17.4068 20.7091 15.8005 22.3221 13.9075 22.3887C13.4676 22.4021 13.2077 22.2154 13.201 21.8755C13.1943 21.5489 13.4276 21.349 13.8542 21.329C15.2472 21.249 16.3204 20.1759 16.4003 18.7695C16.4203 18.3562 16.6336 18.1163 16.9602 18.1363C17.2935 18.1496 17.4735 18.4029 17.4601 18.8228Z" fill="#F99B2A"/>
</g>
<defs>
<clipPath id="clip0_1_593">
<rect width="34.1262" height="32" fill="white" transform="translate(0.93689)"/>
</clipPath>
</defs>
</svg>
