<svg width="36" height="36" viewBox="0 0 36 36" fill="none" xmlns="http://www.w3.org/2000/svg">
<path d="M35.4876 10.8256C35.2046 10.8256 34.9752 11.0549 34.9752 11.3379V31.9809C34.9752 32.253 34.7538 32.4744 34.4817 32.4744H20.5042C20.2212 32.4744 19.9918 32.7037 19.9918 32.9868C19.9918 33.2697 20.2212 33.4991 20.5042 33.4991H34.4818C35.3189 33.4991 36 32.8181 36 31.9809V11.3379C36 11.055 35.7706 10.8256 35.4876 10.8256Z" fill="#EE2E24"/>
<path d="M34.4817 0.446533H1.51818C0.681045 0.446533 0 1.12758 0 1.96472V31.9806C0 32.8178 0.681045 33.4988 1.51818 33.4988H2.85735C3.14036 33.4988 3.36972 33.2695 3.36972 32.9865C3.36972 32.7035 3.14036 32.4741 2.85735 32.4741H1.51818C1.24608 32.4741 1.02466 32.2527 1.02466 31.9806V1.96472C1.02466 1.69261 1.24608 1.4712 1.51818 1.4712H34.4817C34.7539 1.4712 34.9753 1.69261 34.9753 1.96472V8.12668C34.9753 8.40962 35.2046 8.63905 35.4876 8.63905C35.7706 8.63905 36 8.40969 36 8.12668V1.96472C35.9999 1.12758 35.3189 0.446533 34.4817 0.446533Z" fill="#EE2E24"/>
<path d="M20.1956 22.0299C20.1956 21.2511 19.562 20.6174 18.7832 20.6174H18.5881H4.26565C3.4868 20.6174 2.85315 21.2511 2.85315 22.0299C2.85315 22.8088 3.4868 23.4424 4.26565 23.4424H5.16375L4.00487 34.2708C3.97013 34.5953 4.07061 34.9072 4.28794 35.149C4.51878 35.4059 4.86148 35.5532 5.22816 35.5532H18.1334C18.5 35.5532 18.8427 35.4059 19.0736 35.149C19.2908 34.9073 19.3914 34.5954 19.3567 34.2708L18.1978 23.4424H18.7832C19.562 23.4424 20.1956 22.8088 20.1956 22.0299ZM4.26565 22.4178C4.05176 22.4178 3.87781 22.2438 3.87781 22.0299C3.87781 21.8161 4.05176 21.6421 4.26565 21.6421H5.35641L5.27337 22.4178H4.26565ZM5.22816 34.5285C5.1518 34.5285 5.0869 34.505 5.05006 34.464C5.02854 34.4401 5.02018 34.4133 5.02369 34.3797L6.38691 21.6421H12.1546L12.8097 34.5285H5.22816ZM13.8357 34.5285L13.1806 21.6421H14.4517L15.4728 34.5285H13.8357ZM18.3378 34.3798C18.3413 34.4133 18.333 34.4401 18.3115 34.464C18.2746 34.505 18.2097 34.5285 18.1334 34.5285H16.5007L15.4796 21.6421H16.9746L18.3378 34.3798ZM18.0881 22.4178L18.005 21.6421H18.7831C18.9969 21.6421 19.1709 21.816 19.1709 22.0299C19.1709 22.2438 18.9969 22.4178 18.7831 22.4178H18.0881Z" fill="#EE2E24"/>
<path d="M26.4376 20.6174H23.8046C23.2553 20.6174 22.8084 21.0643 22.8084 21.6136V24.2466C22.8084 24.7959 23.2553 25.2427 23.8046 25.2427H26.4376C26.9869 25.2427 27.4338 24.7959 27.4338 24.2466V21.6136C27.4338 21.0643 26.9869 20.6174 26.4376 20.6174ZM26.4091 24.2181H23.8331V21.6422H26.4091V24.2181Z" fill="#F99B2A"/>
<path d="M32.1506 20.6174H29.5176C28.9684 20.6174 28.5215 21.0643 28.5215 21.6136V24.2466C28.5215 24.7959 28.9684 25.2427 29.5176 25.2427H32.1506C32.6999 25.2427 33.1468 24.7959 33.1468 24.2466V21.6136C33.1468 21.0643 32.6999 20.6174 32.1506 20.6174ZM32.1221 24.2181H29.5461V21.6422H32.1221V24.2181Z" fill="#F99B2A"/>
<path d="M26.4376 26.2098H23.8046C23.2553 26.2098 22.8084 26.6567 22.8084 27.206V29.839C22.8084 30.3883 23.2553 30.8352 23.8046 30.8352H26.4376C26.9869 30.8352 27.4338 30.3883 27.4338 29.839V27.206C27.4338 26.6567 26.9869 26.2098 26.4376 26.2098ZM26.4091 29.8105H23.8331V27.2344H26.4091V29.8105Z" fill="#F99B2A"/>
<path d="M32.1506 26.2098H29.5176C28.9684 26.2098 28.5215 26.6567 28.5215 27.206V29.839C28.5215 30.3883 28.9684 30.8352 29.5176 30.8352H32.1506C32.6999 30.8352 33.1468 30.3883 33.1468 29.839V27.206C33.1468 26.6567 32.6999 26.2098 32.1506 26.2098ZM32.1221 29.8105H29.5461V27.2344H32.1221V29.8105Z" fill="#EE2E24"/>
<path d="M33.1468 4.81903C33.1468 4.00565 32.485 3.34387 31.6717 3.34387H4.3283C3.51493 3.34387 2.85315 4.00565 2.85315 4.81903V16.3652C2.85315 17.1785 3.51493 17.8403 4.3283 17.8403H31.6717C32.485 17.8403 33.1468 17.1786 33.1468 16.3652V4.81903ZM32.1221 16.3652C32.1221 16.6136 31.9201 16.8157 31.6717 16.8157H4.3283C4.07989 16.8157 3.87781 16.6136 3.87781 16.3652V4.81903C3.87781 4.57061 4.07989 4.36853 4.3283 4.36853H31.6717C31.9201 4.36853 32.1221 4.57061 32.1221 4.81903V16.3652Z" fill="#EE2E24"/>
<path d="M13.1405 13.1148L11.5844 8.03878C11.493 7.74755 11.1185 7.60608 10.7357 7.60608C10.3529 7.60608 9.9785 7.74755 9.88695 8.03878L8.33916 13.1148C8.33087 13.148 8.32257 13.1814 8.32257 13.2063C8.32257 13.5141 8.79683 13.7389 9.15479 13.7389C9.36277 13.7389 9.5292 13.6723 9.57912 13.4976L9.86199 12.4574H11.6178L11.9006 13.4976C11.9505 13.6723 12.117 13.7389 12.325 13.7389C12.6829 13.7389 13.1572 13.5142 13.1572 13.2063C13.1572 13.1814 13.1489 13.148 13.1405 13.1148ZM10.1282 11.4588L10.7357 9.22875L11.3432 11.4588H10.1282Z" fill="#F99B2A"/>
<path d="M19.2315 7.65564H15.6367C15.3621 7.65564 15.2457 7.95517 15.2457 8.22981C15.2457 8.546 15.3871 8.82057 15.6367 8.82057H16.7852V13.3391C16.7852 13.6053 17.1097 13.7385 17.4342 13.7385C17.7587 13.7385 18.0832 13.6053 18.0832 13.3391V8.82057H19.2315C19.4812 8.82057 19.6227 8.546 19.6227 8.22981C19.6227 7.95517 19.5062 7.65564 19.2315 7.65564Z" fill="#F99B2A"/>
<path d="M27.0283 7.65564C26.5622 7.65564 26.3626 7.70556 26.0214 8.30469L25.1644 9.80256L24.3073 8.30469C23.9662 7.70556 23.7664 7.65564 23.3005 7.65564C22.9759 7.65564 22.6514 7.83037 22.6514 8.30469V13.3391C22.6514 13.6053 22.9759 13.7385 23.3005 13.7385C23.6249 13.7385 23.9494 13.6053 23.9494 13.3391V10.1354L24.74 11.5833C24.8398 11.7747 24.9979 11.8246 25.1477 11.8246C25.3058 11.8246 25.4723 11.7664 25.5804 11.5833L26.3792 10.2186V13.3391C26.3792 13.6053 26.7037 13.7385 27.0283 13.7385C27.3528 13.7385 27.6773 13.6053 27.6773 13.3391V8.30469C27.6773 7.83037 27.3611 7.65564 27.0283 7.65564Z" fill="#F99B2A"/>
</svg>
