<svg width="16" height="12" viewBox="0 0 16 12" fill="none" xmlns="http://www.w3.org/2000/svg">
<path d="M14.3438 0.25H2.15634C1.36533 0.25 0.750092 0.894531 0.750092 1.65625V10.0938C0.750092 10.8848 1.36533 11.5 2.15634 11.5H14.3438C15.1056 11.5 15.7501 10.8848 15.7501 10.0938V1.65625C15.7501 0.894531 15.1056 0.25 14.3438 0.25ZM14.3438 1.65625V2.85742C13.67 3.41406 12.6153 4.23438 10.3888 5.99219C9.89072 6.37305 8.92392 7.31055 8.25009 7.28125C7.54697 7.31055 6.58017 6.37305 6.08212 5.99219C3.85556 4.23438 2.80087 3.41406 2.15634 2.85742V1.65625H14.3438ZM2.15634 10.0938V4.67383C2.80087 5.20117 3.76767 5.96289 5.20322 7.10547C5.84775 7.60352 6.99033 8.7168 8.25009 8.6875C9.48056 8.7168 10.5938 7.60352 11.2677 7.10547C12.7032 5.96289 13.67 5.20117 14.3438 4.67383V10.0938H2.15634Z" fill="white"/>
</svg>
