<svg width="106" height="40" viewBox="0 0 106 40" fill="none" xmlns="http://www.w3.org/2000/svg">
<path d="M101.948 37.2259H101.26V36.8865H102.991V37.2259H102.304V39.4529H101.948V37.2259ZM103.488 36.8865H103.878L104.623 38.2111L105.369 36.8865H105.75V39.4529H105.402V37.4908L104.64 38.8568H104.598L103.836 37.4908V39.4529H103.488L103.488 36.8865Z" fill="#EE2E24"/>
<path d="M100.101 0H0.249908V40H100.101V0Z" fill="white"/>
<path d="M99.5339 0.56665H0.816574V32.955H99.5339V0.56665Z" fill="#EE2E24"/>
<path d="M99.5339 34.5747H0.816574V39.4332H99.5339V34.5747Z" fill="#F99B2A"/>
<path d="M21.5561 11.9485H24.6613V24.006H21.5561V11.9485ZM30.0729 18.143C31.3008 18.143 32.1774 17.539 32.1774 16.2862C32.1774 15.0592 31.3528 14.5071 30.0921 14.5071H29.2024V18.143H30.0729ZM51.577 21.2591H55.7545V24.006H48.4264V11.9485H51.577V21.2591ZM56.7617 11.9485H64.6937V14.6889H59.867V16.6885H64.4797V19.2207H59.867V21.2591H64.7069V24.006H56.7617V11.9485ZM83.6317 17.7465L87.9133 11.9485H83.5152L79.5518 17.4999V11.9485H75.7056V24.006H79.5517V18.4546L86.3931 27.272C84.6186 28.3584 82.5747 28.9254 80.4938 28.9085C79.0491 28.9374 77.6134 28.6743 76.2729 28.135C74.9324 27.5958 73.7148 26.7914 72.693 25.7702C71.6712 24.7491 70.8664 23.5321 70.3268 22.1924C69.7873 20.8527 69.5241 19.4178 69.553 17.974C69.5598 15.0785 70.7154 12.3039 72.7664 10.2589C74.8174 8.21391 77.5963 7.06543 80.4935 7.06543C83.3906 7.06543 86.1695 8.21391 88.2205 10.2589C90.2715 12.3039 91.4271 15.0785 91.4339 17.974C91.4545 20.4176 90.6642 22.7992 89.1864 24.7461L83.6317 17.7465ZM35.2573 15.9352C35.282 16.6726 35.0814 17.4001 34.6821 18.0207C34.2829 18.6413 33.7039 19.1256 33.0224 19.4092L36.0957 24.006H32.431L29.2024 18.9545V24.006H26.0972V11.9485H29.9757C33.3669 11.9485 35.2573 13.2863 35.2573 15.9352ZM15.3255 14.585C14.8853 14.5837 14.4493 14.6714 14.0438 14.8428C13.6382 15.0141 13.2716 15.2656 12.9657 15.5821C12.6599 15.8987 12.4213 16.2737 12.2641 16.6847C12.1069 17.0957 12.0345 17.5343 12.0512 17.974C12.0339 18.4138 12.106 18.8526 12.2629 19.2639C12.4199 19.6753 12.6585 20.0506 12.9644 20.3673C13.2704 20.684 13.6373 20.9355 14.043 21.1067C14.4488 21.278 14.8851 21.3653 15.3255 21.3636C15.9188 21.3612 16.5012 21.205 17.016 20.9102C17.5307 20.6155 17.9601 20.1922 18.2621 19.6819L20.6591 21.2468C20.0969 22.1701 19.3029 22.9302 18.3558 23.4518C17.4087 23.9734 16.3415 24.2382 15.2603 24.2201C14.4322 24.2323 13.6099 24.0799 12.8412 23.7717C12.0726 23.4635 11.373 23.0056 10.783 22.4246C10.1931 21.8437 9.72459 21.1513 9.40482 20.3878C9.08505 19.6243 8.92038 18.8048 8.92038 17.9771C8.92038 17.1494 9.08505 16.3299 9.40482 15.5664C9.72459 14.8029 10.1931 14.1105 10.783 13.5296C11.373 12.9487 12.0726 12.4908 12.8412 12.1825C13.6099 11.8743 14.4322 11.7219 15.2603 11.7341C16.3459 11.7039 17.4202 11.9614 18.3741 12.4803C19.3281 12.9993 20.1276 13.7613 20.6915 14.6889L18.2352 16.2992C17.9483 15.7792 17.5268 15.3458 17.0149 15.0442C16.503 14.7427 15.9195 14.5841 15.3253 14.585L15.3255 14.585ZM42.2808 14.585C41.8405 14.5837 41.4045 14.6713 40.9989 14.8426C40.5933 15.014 40.2266 15.2654 39.9207 15.582C39.6149 15.8985 39.3762 16.2736 39.219 16.6846C39.0618 17.0957 38.9894 17.5342 39.0061 17.974C38.9888 18.4139 39.0609 18.8527 39.2179 19.264C39.3748 19.6754 39.6135 20.0507 39.9195 20.3674C40.2254 20.6841 40.5924 20.9356 40.9982 21.1068C41.404 21.2781 41.8403 21.3654 42.2808 21.3636C42.874 21.3612 43.4564 21.205 43.971 20.9102C44.4857 20.6154 44.915 20.1922 45.2169 19.6819L47.6144 21.2468C46.8958 22.3894 45.8243 23.2669 44.562 23.7465C43.2998 24.2261 41.9156 24.2817 40.619 23.9049C39.3224 23.528 38.1839 22.7392 37.3759 21.6579C36.5678 20.5766 36.1343 19.2617 36.1408 17.9121C36.1474 16.5626 36.5937 15.2519 37.4122 14.1785C38.2307 13.1051 39.3768 12.3274 40.677 11.9631C41.9772 11.5989 43.3608 11.6679 44.6183 12.1597C45.8758 12.6515 46.9388 13.5394 47.6462 14.6889L45.1908 16.2992C44.9037 15.7792 44.4822 15.3459 43.9703 15.0443C43.4585 14.7428 42.875 14.5842 42.2808 14.585Z" fill="white"/>
</svg>
