<svg width="17" height="12" viewBox="0 0 17 12" fill="none" xmlns="http://www.w3.org/2000/svg">
<path d="M15.8341 2.03711C15.6583 1.33398 15.1017 0.777344 14.4278 0.601562C13.1681 0.25 8.18759 0.25 8.18759 0.25C8.18759 0.25 3.17783 0.25 1.91806 0.601562C1.24423 0.777344 0.687592 1.33398 0.51181 2.03711C0.160248 3.26758 0.160248 5.9043 0.160248 5.9043C0.160248 5.9043 0.160248 8.51172 0.51181 9.77148C0.687592 10.4746 1.24423 11.002 1.91806 11.1777C3.17783 11.5 8.18759 11.5 8.18759 11.5C8.18759 11.5 13.1681 11.5 14.4278 11.1777C15.1017 11.002 15.6583 10.4746 15.8341 9.77148C16.1856 8.51172 16.1856 5.9043 16.1856 5.9043C16.1856 5.9043 16.1856 3.26758 15.8341 2.03711ZM6.54697 8.27734V3.53125L10.7071 5.9043L6.54697 8.27734Z" fill="white"/>
</svg>
