<svg width="30" height="36" viewBox="0 0 30 36" fill="none" xmlns="http://www.w3.org/2000/svg">
<path d="M8.35638 36C8.06178 35.8232 7.94394 35.5875 7.94394 35.234C7.94394 33.1718 7.94394 31.0507 7.94394 28.9885C7.94394 28.8707 7.94394 28.7529 8.00286 28.635C8.06178 28.3993 8.23854 28.2815 8.53314 28.2815C8.76882 28.2815 8.94558 28.3993 9.0045 28.6939C9.06342 28.8118 9.06342 28.9885 9.06342 29.1064C9.06342 30.815 9.06342 32.5237 9.06342 34.2913C9.06342 34.4091 9.06342 34.527 9.06342 34.7037C9.18126 34.6448 9.2991 34.6448 9.35802 34.5859C11.1256 33.82 12.9521 33.1129 14.7197 32.347C15.0732 32.1702 15.4268 32.1702 15.7803 32.347C17.6657 33.1718 19.5511 33.9378 21.4366 34.7037C21.4366 34.527 21.4366 34.4091 21.4366 34.2913C21.4366 32.5826 21.4366 30.815 21.4366 29.1064C21.4366 28.9885 21.4366 28.8118 21.4366 28.6939C21.4955 28.4583 21.6723 28.2815 21.9079 28.2815C22.2025 28.2815 22.3793 28.3993 22.4382 28.635C22.4971 28.7529 22.4971 28.8707 22.4971 28.9885C22.4971 31.0507 22.4971 33.1718 22.4971 35.234C22.4971 35.5286 22.3793 35.7643 22.1436 35.9411C22.0258 35.9411 21.9079 35.9411 21.7901 35.9411C19.8457 35.1162 17.9014 34.3502 15.957 33.4664C15.4268 33.2308 14.9554 33.2308 14.4251 33.4664C12.4808 34.2913 10.5364 35.1162 8.59206 35.9411C8.53314 36 8.47422 36 8.35638 36Z" fill="#EE2E24"/>
<path d="M28.507 8.6612C28.507 8.83796 28.448 9.01472 28.448 9.19148C28.2713 9.89852 28.448 10.4288 29.0372 10.9002C29.4497 11.1948 29.7443 11.6661 29.921 12.1964C30.0978 12.7856 30.0389 13.4337 29.6854 13.964C29.214 14.671 29.214 15.2602 29.6854 15.9673C30.2745 16.9689 30.0389 18.2062 29.1551 18.9722C28.8016 19.2668 28.448 19.5614 28.448 20.0327C28.448 20.2684 28.448 20.5041 28.507 20.7398C28.7426 21.9182 28.0945 23.0376 26.975 23.3912C26.2091 23.6268 25.7966 24.0982 25.6788 24.9231C25.561 26.0425 24.5004 26.8674 23.3809 26.8674C23.0863 26.8674 22.8507 26.8674 22.5561 26.9263C22.0847 27.0442 21.849 27.3977 21.6133 27.7512C21.0831 28.6939 20.1993 29.1064 19.1387 28.9885C19.0209 28.9885 18.8441 28.9296 18.7263 28.8707C18.0192 28.5172 17.3711 28.635 16.7819 29.1653C16.3106 29.5777 15.7214 29.7545 15.1322 29.7545C14.6019 29.7545 14.1305 29.5777 13.777 29.2242C13.1878 28.635 12.5397 28.5761 11.7737 28.8707C10.7132 29.2831 9.47586 28.8707 8.94558 27.8691C8.53314 27.1031 8.00286 26.8085 7.17799 26.8674C6.05851 26.9263 5.05687 26.0425 4.88011 24.9231C4.76227 24.0982 4.34983 23.6268 3.58388 23.3912C2.4644 23.0376 1.81628 21.8592 2.05196 20.7398C2.22872 19.9738 1.99304 19.4435 1.40384 18.9132C0.461127 18.1473 0.225448 16.91 0.873566 15.8494C1.286 15.2013 1.286 14.6121 0.873566 13.9051C0.225448 12.9034 0.461127 11.6072 1.40384 10.9002C2.05196 10.4288 2.22872 9.8396 2.05196 9.07364C1.81628 7.95416 2.4644 6.77577 3.52496 6.42225C4.34983 6.18657 4.70335 5.65629 4.82119 4.83141C4.99795 3.77086 6.05851 2.94598 7.11907 2.94598C7.35474 2.94598 7.59042 2.94598 7.8261 2.88706C8.29746 2.76922 8.59206 2.47462 8.82774 2.06218C9.53478 0.824867 10.5953 0.471348 11.8916 0.942707C12.5397 1.17839 13.07 1.06055 13.6002 0.648108C14.6608 -0.235689 15.8392 -0.235689 16.8408 0.648108C17.3711 1.11947 17.9014 1.23731 18.6084 0.942707C19.8457 0.471348 20.9652 0.883787 21.6723 2.06218C22.0258 2.65138 22.4971 2.94598 23.2042 2.94598C24.6182 2.94598 25.502 3.65302 25.6788 5.06709C25.7966 5.77413 26.2091 6.18657 26.8572 6.42225C27.8588 6.71685 28.448 7.60064 28.507 8.6612ZM7.41366 4.00654C6.47095 4.00654 5.99959 4.36005 5.88175 5.24385C5.70499 6.36333 5.11579 7.01145 4.05524 7.36497C3.28928 7.60064 2.93576 8.18984 3.11252 8.9558C3.3482 10.0164 3.0536 10.9002 2.1698 11.6072C1.52168 12.1375 1.40384 12.7856 1.81628 13.5515C2.40548 14.4943 2.40548 15.3781 1.81628 16.3208C1.34492 17.0278 1.46276 17.6759 2.1698 18.2062C3.0536 18.9132 3.3482 19.7381 3.11252 20.7987C2.93576 21.5646 3.28928 22.2128 4.05524 22.4484C5.11579 22.802 5.70499 23.4501 5.88175 24.5695C5.99959 25.5123 6.52987 25.8658 7.41366 25.8069C8.47422 25.8069 9.24018 26.2193 9.71154 27.1031C9.82938 27.2799 9.94722 27.5155 10.124 27.6334C10.5364 27.9869 11.0667 27.9869 11.597 27.8101C12.5397 27.3977 13.4235 27.5155 14.1894 28.2226C14.9554 28.8707 15.5446 28.8707 16.3106 28.2226C17.0765 27.5745 17.9014 27.4566 18.7852 27.8101C19.7279 28.1637 20.2582 27.9869 20.7885 27.1031C21.2598 26.2193 22.0258 25.8069 23.0274 25.8658C23.9701 25.8658 24.4415 25.5123 24.6182 24.5695C24.795 23.509 25.3842 22.8609 26.3858 22.5074C27.2107 22.2717 27.5642 21.6825 27.3286 20.7987C27.0929 19.7381 27.3875 18.9132 28.2713 18.2062C28.9783 17.6759 29.0962 17.0278 28.6248 16.2619C28.0945 15.3781 28.0945 14.4943 28.6248 13.6105C29.0962 12.8445 28.9783 12.1964 28.2713 11.6072C27.4464 10.9591 27.1518 10.1342 27.3875 9.07364C27.5642 8.18984 27.2696 7.65956 26.3858 7.36497C25.3842 7.01145 24.795 6.36333 24.6182 5.30277C24.4415 4.36006 24.0291 3.94762 23.0274 4.00654C22.0258 4.00654 21.2598 3.5941 20.7295 2.7103C20.2582 1.88542 19.669 1.64974 18.7852 2.00326C17.9014 2.35678 17.0176 2.18002 16.2516 1.5319C15.5446 0.883787 14.9554 0.883787 14.2484 1.5319C13.4824 2.23894 12.5986 2.35678 11.597 2.00326C10.7721 1.64974 10.124 1.88542 9.71154 2.7103C9.24018 3.5941 8.47422 4.00654 7.41366 4.00654Z" fill="#EE2E24"/>
<path d="M15.0732 3.77084C20.3171 3.77084 24.795 7.24711 26.0913 12.1964C26.2091 12.6677 26.268 13.1391 26.3858 13.6104C26.4448 13.964 26.268 14.1996 25.9145 14.2586C25.6199 14.3175 25.3842 14.1407 25.3253 13.7872C25.1485 12.7267 24.9129 11.725 24.4415 10.7234C23.0274 7.77739 20.7295 5.89196 17.5479 5.126C12.4219 3.88868 7.11907 6.95251 5.58715 12.0196C5.41039 12.6088 5.35147 13.198 5.23363 13.7872C5.17471 14.1996 4.93903 14.3764 4.64444 14.3175C4.29092 14.2586 4.17308 14.0229 4.232 13.6104C4.58552 10.9591 5.70499 8.66119 7.70827 6.83467C9.41694 5.24384 11.4202 4.30112 13.777 3.9476C14.1894 3.82976 14.7197 3.77084 15.0732 3.77084Z" fill="#EE2E24"/>
<path d="M15.25 26.1015C10.4186 26.1015 6.11743 22.9787 4.64443 18.3241C4.40876 17.6759 4.34984 17.0278 4.232 16.3208C4.17308 15.9673 4.34984 15.7316 4.64443 15.6727C4.93903 15.6137 5.23363 15.7905 5.29255 16.144C5.46931 17.3224 5.76391 18.4419 6.35311 19.5025C7.94394 22.5074 10.4775 24.3339 13.8359 24.8642C16.8998 25.3355 19.6101 24.5106 21.9669 22.5663C23.8523 20.9754 24.9718 18.9133 25.3842 16.4386C25.3842 16.3208 25.4431 16.2029 25.4431 16.0851C25.502 15.7905 25.7377 15.6137 26.0912 15.6727C26.3858 15.7316 26.5626 15.9673 26.5037 16.2619C26.3858 17.3224 26.0912 18.383 25.6788 19.3257C24.4415 22.0949 22.3793 24.0982 19.6101 25.2177C18.2549 25.7479 16.6052 26.1015 15.25 26.1015Z" fill="#EE2E24"/>
<path d="M12.4808 20.4452C11.8916 20.4452 11.6559 19.9738 11.8916 19.5025C13.2467 16.7332 14.6608 13.964 16.016 11.1948C16.4284 10.3699 16.8408 9.54501 17.2533 8.72013C17.4889 8.24877 17.7246 8.13093 18.1371 8.30769C18.4906 8.48445 18.5495 8.77905 18.3138 9.30933C16.6641 12.6088 15.0143 15.9083 13.3646 19.2079C13.1878 19.5025 13.07 19.856 12.8932 20.0917C12.7164 20.2684 12.5397 20.3863 12.4808 20.4452Z" fill="#EE2E24"/>
<path d="M16.3695 16.9689C16.3695 16.5565 16.3695 16.144 16.3695 15.7316C16.4284 14.7299 16.8998 14.1997 17.8425 14.0818C18.3138 14.0229 18.8441 14.0818 19.3155 14.1997C19.9636 14.3764 20.3171 14.8478 20.376 15.4959C20.4349 16.4975 20.4349 17.5581 20.376 18.5597C20.376 19.2079 19.9636 19.6203 19.3744 19.856C18.7263 20.0917 18.0782 20.0917 17.43 19.856C16.7819 19.6203 16.4284 19.1489 16.3695 18.5008C16.3695 17.9705 16.3695 17.4403 16.3695 16.9689ZM19.3155 16.9689C19.3155 16.5565 19.3155 16.144 19.3155 15.7316C19.3155 15.2602 19.0209 15.0245 18.4906 14.9656C17.9014 14.9067 17.489 15.1424 17.489 15.6137C17.43 16.4975 17.43 17.3813 17.489 18.2651C17.489 18.7365 17.9014 18.9722 18.4317 18.9722C19.0209 18.9722 19.3155 18.6776 19.3155 18.2062C19.3744 17.7938 19.3155 17.3813 19.3155 16.9689Z" fill="#EE2E24"/>
<path d="M13.7181 11.8429C13.7181 12.3142 13.7181 12.7267 13.7181 13.198C13.6592 14.0818 13.1878 14.671 12.304 14.7888C11.7737 14.8478 11.2435 14.7888 10.7721 14.671C10.124 14.4942 9.77046 14.0229 9.71154 13.3748C9.65262 12.3731 9.65262 11.3715 9.71154 10.3699C9.77046 9.6039 10.2418 9.13254 10.9489 8.95578C11.5381 8.83794 12.1272 8.83794 12.6575 9.0147C13.3056 9.25038 13.6592 9.72174 13.7181 10.4288C13.7181 10.8412 13.7181 11.3126 13.7181 11.8429ZM10.7721 11.7839C10.7721 12.1964 10.7721 12.5499 10.7721 12.9623C10.7721 13.5515 11.0667 13.7872 11.7148 13.8461C12.304 13.8461 12.6575 13.5515 12.6575 12.9623C12.6575 12.1964 12.6575 11.4304 12.6575 10.6645C12.6575 10.0753 12.304 9.83958 11.7148 9.83958C11.1256 9.83958 10.7721 10.1342 10.7721 10.6645C10.7721 11.018 10.7721 11.4304 10.7721 11.7839Z" fill="#EE2E24"/>
</svg>
