<svg width="36" height="36" viewBox="0 0 36 36" fill="none" xmlns="http://www.w3.org/2000/svg">
<path d="M13.52 36C12.8 35.73 12.26 35.28 12.17 34.56C12.17 34.38 12.17 34.29 12.17 34.11C12.17 31.41 12.17 28.71 12.17 26.01C12.17 25.38 12.35 24.93 12.8 24.48C12.89 24.39 12.89 24.3 12.89 24.12C12.89 22.41 12.89 20.79 12.89 19.08C12.89 18.99 12.8 18.81 12.71 18.72C12.35 18.36 12.17 17.91 12.17 17.28C12.17 15.57 12.17 13.86 12.17 12.15C12.17 10.98 12.71 10.08 13.79 9.54001C14.69 9.09001 14.96 8.37002 14.96 7.29001C14.96 7.20002 14.87 7.11001 14.78 7.11001C14.33 6.84001 14.15 6.57001 14.15 6.03001C14.15 5.76001 14.15 5.40001 14.15 5.13001C14.15 4.59001 14.6 4.14001 15.14 4.14001C16.94 4.14001 18.74 4.14001 20.54 4.14001C21.08 4.14001 21.53 4.59001 21.53 5.13001C21.53 5.40001 21.53 5.67001 21.53 5.94001C21.53 6.48001 21.35 6.84001 20.9 7.11001C20.81 7.11001 20.72 7.29001 20.72 7.38001C20.72 8.28001 20.99 9.09001 21.89 9.63001C22.88 10.17 23.42 11.07 23.42 12.24C23.42 13.95 23.42 15.66 23.42 17.37C23.42 17.91 23.24 18.36 22.88 18.72C22.79 18.81 22.7 18.99 22.7 19.08C22.7 20.7 22.7 22.41 22.7 24.03C22.7 24.21 22.79 24.3 22.88 24.48C23.24 24.84 23.42 25.29 23.42 25.83C23.42 28.62 23.42 31.41 23.42 34.2C23.42 35.19 22.88 35.73 21.98 36C19.19 36 16.4 36 13.52 36ZM22.43 30.42C22.25 30.42 22.16 30.42 21.98 30.42C20.54 30.42 19.1 30.42 17.66 30.42C17.48 30.42 17.21 30.42 17.03 30.42C16.76 30.42 16.58 30.24 16.58 29.97C16.58 29.7 16.76 29.52 17.03 29.43C17.12 29.43 17.3 29.43 17.39 29.43C18.92 29.43 20.54 29.43 22.07 29.43C22.16 29.43 22.34 29.43 22.43 29.43C22.43 29.07 22.43 28.71 22.43 28.44C19.37 28.44 16.31 28.44 13.25 28.44C13.25 28.8 13.25 29.07 13.25 29.43C13.7 29.43 14.15 29.43 14.6 29.43C15.05 29.43 15.32 29.88 15.05 30.24C14.96 30.33 14.69 30.42 14.51 30.51C14.06 30.51 13.7 30.51 13.25 30.51C13.25 31.86 13.25 33.12 13.25 34.38C13.25 34.74 13.52 35.01 13.97 35.01C16.58 35.01 19.19 35.01 21.71 35.01C22.16 35.01 22.43 34.74 22.43 34.38C22.43 33.03 22.43 31.68 22.43 30.42ZM22.34 12.87C22.52 11.79 22.16 10.98 21.26 10.53C20.45 10.08 20 9.45001 19.82 8.55001C19.73 8.19001 19.73 7.74001 19.64 7.38001C18.38 7.38001 17.21 7.38001 15.95 7.38001C15.95 7.56001 15.95 7.65001 15.95 7.83001C15.86 9.09001 15.41 10.08 14.24 10.62C13.43 11.07 13.07 11.97 13.25 12.96C16.31 12.87 19.28 12.87 22.34 12.87ZM21.62 19.17C19.01 19.17 16.49 19.17 13.88 19.17C13.88 20.88 13.88 22.5 13.88 24.21C16.49 24.21 19.01 24.21 21.62 24.21C21.62 22.5 21.62 20.79 21.62 19.17ZM22.43 16.02C19.37 16.02 16.31 16.02 13.25 16.02C13.25 16.47 13.25 16.92 13.25 17.46C13.25 17.91 13.52 18.09 13.88 18.09C16.49 18.09 19.19 18.09 21.8 18.09C22.25 18.09 22.43 17.91 22.43 17.46C22.43 17.01 22.43 16.56 22.43 16.02ZM22.34 27.18C22.34 26.64 22.34 26.19 22.34 25.74C22.34 25.38 22.07 25.2 21.71 25.2C19.01 25.2 16.4 25.2 13.7 25.2C13.34 25.2 13.16 25.38 13.16 25.65C13.16 26.19 13.16 26.64 13.16 27.18C16.31 27.18 19.28 27.18 22.34 27.18ZM22.34 13.95C19.28 13.95 16.22 13.95 13.16 13.95C13.16 14.31 13.16 14.67 13.16 14.94C16.22 14.94 19.28 14.94 22.34 14.94C22.34 14.58 22.34 14.31 22.34 13.95ZM15.14 6.21001C16.94 6.21001 18.65 6.21001 20.45 6.21001C20.45 5.85001 20.45 5.58001 20.45 5.31001C18.65 5.31001 16.94 5.31001 15.14 5.31001C15.14 5.58001 15.14 5.85001 15.14 6.21001Z" fill="#EE2E24"/>
<path d="M8.12 0C8.66 0.27 8.84 0.72 8.75 1.26C8.75 1.8 8.75 2.34 8.75 2.88C8.75 3.24 8.66 3.42 8.39 3.69C8.3 3.69 8.21 3.87 8.21 3.96C8.21 5.04 8.21 6.21 8.21 7.29C8.21 7.92 8.39 8.46 8.75 9C9.2 9.63 9.65 10.26 10.19 10.89C10.91 11.88 11.18 12.96 11.18 14.13C11.18 20.79 11.18 27.45 11.18 34.02C11.18 35.1 10.91 35.46 9.92 35.91C7.04 35.91 4.16 35.91 1.28 35.91C0.560001 35.73 0.110001 35.19 0.110001 34.29C0.110001 27.45 0.110001 20.61 0.110001 13.77C0.110001 13.23 0.200001 12.6 0.470001 12.06C1.01 11.07 1.64 10.17 2.36 9.27C2.54 9 2.81 9 3.08 9.18C3.35 9.36 3.35 9.63 3.26 9.9C3.17 9.99 3.08 10.17 2.99 10.26C2.63 10.8 2.27 11.25 1.91 11.79C1.19 12.78 1.19 13.86 1.28 15.03C4.25 15.03 7.22 15.03 10.19 15.03C10.37 13.68 10.19 12.51 9.38 11.43C8.93 10.8 8.48 10.26 8.03 9.63C7.49 9 7.22 8.37 7.22 7.74C7.22 6.75 7.22 5.76 7.22 4.77C7.22 4.5 7.22 4.14 7.22 3.78C6.23 3.78 5.24 3.78 4.16 3.78C4.16 4.41 4.16 4.95 4.16 5.58C4.16 6.21 4.16 6.75 4.16 7.38C4.16 7.65 3.98 7.83 3.71 7.92C3.44 7.92 3.17 7.74 3.17 7.47C3.17 7.38 3.17 7.2 3.17 7.11C3.17 6.12 3.17 5.04 3.17 4.05C3.17 3.87 3.08 3.78 2.99 3.6C2.81 3.33 2.63 3.06 2.54 2.88C2.45 2.34 2.54 1.8 2.54 1.26C2.54 0.72 2.72 0.27 3.17 0C4.88 0 6.5 0 8.12 0ZM1.19 28.26C1.19 28.35 1.19 28.53 1.19 28.62C1.19 30.51 1.19 32.31 1.19 34.2C1.19 34.74 1.37 34.92 1.91 34.92C4.43 34.92 6.95 34.92 9.47 34.92C10.1 34.92 10.19 34.83 10.19 34.2C10.19 32.31 10.19 30.51 10.19 28.62C10.19 28.53 10.19 28.35 10.19 28.26C7.13 28.26 4.16 28.26 1.19 28.26ZM10.1 17.91C7.13 17.91 4.16 17.91 1.19 17.91C1.19 20.34 1.19 22.86 1.19 25.29C4.16 25.29 7.13 25.29 10.1 25.29C10.1 22.86 10.1 20.43 10.1 17.91ZM1.19 16.83C4.16 16.83 7.13 16.83 10.1 16.83C10.1 16.56 10.1 16.29 10.1 16.02C7.13 16.02 4.16 16.02 1.19 16.02C1.19 16.29 1.19 16.56 1.19 16.83ZM10.1 26.37C7.13 26.37 4.16 26.37 1.19 26.37C1.19 26.64 1.19 26.91 1.19 27.18C4.16 27.18 7.13 27.18 10.1 27.18C10.1 26.91 10.1 26.73 10.1 26.37ZM3.62 1.08C3.62 1.62 3.62 2.16 3.62 2.7C4.97 2.7 6.32 2.7 7.67 2.7C7.67 2.16 7.67 1.62 7.67 1.08C6.32 1.08 4.97 1.08 3.62 1.08Z" fill="#EE2E24"/>
<path d="M25.4 36C24.59 35.73 24.32 35.19 24.32 34.29C24.32 28.35 24.32 22.32 24.32 16.38C24.32 15.84 24.5 15.39 24.95 15.03C25.04 14.94 25.04 14.85 25.04 14.76C25.04 14.4 25.04 14.13 25.04 13.77C25.04 13.23 25.4 12.87 25.94 12.78C26.21 12.78 26.57 12.78 26.84 12.78C27.11 12.78 27.38 13.05 27.38 13.32C27.38 13.59 27.2 13.86 26.84 13.86C26.57 13.86 26.39 13.86 26.12 13.86C26.12 14.22 26.12 14.49 26.12 14.85C28.55 14.85 30.98 14.85 33.5 14.85C33.5 14.49 33.5 14.22 33.5 13.86C33.32 13.86 33.23 13.86 33.14 13.86C31.97 13.86 30.71 13.86 29.54 13.86C29.45 13.86 29.36 13.86 29.18 13.86C28.82 13.86 28.64 13.59 28.64 13.32C28.64 13.05 28.82 12.78 29.18 12.78C29.63 12.78 30.08 12.78 30.44 12.78C31.43 12.78 32.42 12.78 33.32 12.78C34.04 12.78 34.49 13.14 34.49 13.95C34.49 14.13 34.49 14.22 34.49 14.4C34.49 14.76 34.49 14.94 34.85 15.21C35.21 15.48 35.21 15.84 35.21 16.29C35.21 19.35 35.21 22.41 35.21 25.56C35.21 28.44 35.21 31.32 35.21 34.2C35.21 35.01 34.94 35.64 34.13 36C31.34 36 28.37 36 25.4 36ZM34.31 25.83C33.77 25.83 33.23 25.83 32.69 25.83C32.6 25.83 32.51 25.92 32.51 26.01C31.16 27.63 28.64 27.63 27.38 26.01C27.29 25.92 27.2 25.83 27.2 25.83C26.66 25.83 26.12 25.83 25.58 25.83C25.58 28.26 25.58 30.6 25.58 32.94C28.55 32.94 31.52 32.94 34.49 32.94C34.31 30.51 34.31 28.17 34.31 25.83ZM25.4 21.87C25.94 21.87 26.48 21.87 27.02 21.87C27.11 21.87 27.2 21.78 27.29 21.69C28.73 20.16 30.98 20.16 32.42 21.69C32.51 21.78 32.6 21.87 32.69 21.87C33.23 21.87 33.77 21.87 34.31 21.87C34.31 21.78 34.31 21.78 34.31 21.69C34.31 19.89 34.31 18.09 34.31 16.29C34.31 16.02 34.13 15.93 33.86 15.93C31.16 15.93 28.46 15.93 25.76 15.93C25.4 15.93 25.31 16.02 25.31 16.38C25.31 18.09 25.31 19.8 25.31 21.51C25.4 21.6 25.4 21.69 25.4 21.87ZM29.9 21.6C28.64 21.6 27.65 22.59 27.65 23.85C27.65 25.11 28.64 26.1 29.9 26.1C31.16 26.1 32.15 25.11 32.15 23.85C32.15 22.59 31.16 21.6 29.9 21.6ZM25.4 34.02C25.4 34.11 25.4 34.2 25.4 34.29C25.4 34.92 25.4 34.92 26.03 34.92C27.92 34.92 29.72 34.92 31.61 34.92C32.33 34.92 33.14 34.92 33.86 34.92C34.04 34.92 34.22 34.83 34.22 34.65C34.22 34.47 34.22 34.2 34.22 34.02C31.34 34.02 28.37 34.02 25.4 34.02ZM34.31 24.75C34.31 24.12 34.31 23.49 34.31 22.95C33.86 22.95 33.5 22.95 33.14 22.95C33.14 23.58 33.14 24.12 33.14 24.75C33.5 24.75 33.86 24.75 34.31 24.75ZM25.4 22.95C25.4 23.58 25.4 24.21 25.4 24.75C25.85 24.75 26.21 24.75 26.57 24.75C26.57 24.12 26.57 23.58 26.57 22.95C26.21 22.95 25.85 22.95 25.4 22.95Z" fill="#F99B2A"/>
<path d="M17.75 21.33C17.39 21.33 16.94 21.33 16.58 21.33C16.22 21.33 15.95 21.15 15.95 20.79C15.95 20.52 16.13 20.25 16.49 20.25C17.3 20.25 18.11 20.25 18.92 20.25C19.28 20.25 19.55 20.43 19.46 20.79C19.46 21.06 19.28 21.24 18.83 21.33C18.56 21.33 18.2 21.33 17.75 21.33Z" fill="#F99B2A"/>
<path d="M17.75 23.13C17.48 23.13 17.3 23.13 17.03 23.13C16.76 23.13 16.58 22.95 16.58 22.68C16.58 22.41 16.76 22.14 17.03 22.14C17.57 22.14 18.02 22.14 18.56 22.14C18.92 22.14 19.1 22.41 19.01 22.68C19.01 22.95 18.83 23.13 18.47 23.22C18.38 23.22 18.2 23.22 18.11 23.22C18.02 23.13 17.93 23.13 17.75 23.13Z" fill="#F99B2A"/>
<path d="M4.61001 20.43C5.33001 19.98 5.96001 19.98 6.59001 20.43C7.40001 19.98 8.21001 19.89 8.84001 20.7C9.29001 21.24 9.29001 22.14 8.75001 22.68C8.21001 23.31 7.40001 23.31 6.59001 22.86C5.96001 23.31 5.24001 23.31 4.61001 22.86C3.89001 23.4 2.99001 23.4 2.36001 22.68C1.91001 22.14 1.91001 21.24 2.45001 20.7C3.08001 19.98 3.80001 19.98 4.61001 20.43ZM4.07001 21.6C4.07001 21.33 3.89001 21.15 3.62001 21.15C3.35001 21.15 3.08001 21.33 3.08001 21.6C3.08001 21.87 3.26001 22.05 3.53001 22.05C3.89001 22.14 4.07001 21.87 4.07001 21.6ZM6.14001 21.6C6.14001 21.33 5.87001 21.15 5.60001 21.15C5.33001 21.15 5.15001 21.33 5.15001 21.6C5.15001 21.87 5.42001 22.05 5.69001 22.05C5.96001 22.05 6.14001 21.87 6.14001 21.6ZM7.22001 21.6C7.22001 21.87 7.40001 22.05 7.67001 22.05C7.94001 22.05 8.12001 21.87 8.12001 21.6C8.12001 21.33 7.94001 21.15 7.67001 21.15C7.40001 21.15 7.22001 21.33 7.22001 21.6Z" fill="#F99B2A"/>
<path d="M29.81 29.79C29.27 29.79 28.64 29.79 28.1 29.79C27.65 29.79 27.47 29.61 27.47 29.25C27.47 28.89 27.74 28.71 28.1 28.71C29.27 28.71 30.44 28.71 31.61 28.71C31.97 28.71 32.24 28.89 32.24 29.25C32.24 29.61 31.97 29.79 31.61 29.79C31.07 29.79 30.44 29.79 29.81 29.79Z" fill="#EE2E24"/>
</svg>
