<svg width="25" height="32" viewBox="0 0 25 32" fill="none" xmlns="http://www.w3.org/2000/svg">
<path d="M23.6326 0.527344C24.0185 0.758855 24.1728 1.06754 24.1728 1.60773C24.0957 2.68812 24.1728 3.84567 24.0957 4.92606C24.0185 5.69776 23.787 6.46947 23.4783 7.164C22.8609 8.32156 22.6294 9.63345 22.6294 10.9453C22.6294 14.3408 22.6294 17.7363 22.6294 21.1318C22.6294 22.3666 22.8609 23.6013 23.4783 24.7589C24.0185 25.7621 24.25 26.7653 24.25 27.9228C24.25 28.7717 24.25 29.6206 24.25 30.3923C24.25 30.8553 24.0957 31.2412 23.7098 31.4727C16.1471 31.4727 8.50723 31.4727 0.944534 31.4727C0.404341 31.164 0.25 30.8553 0.25 30.3151C0.32717 29.2347 0.25 28.0772 0.32717 26.9968C0.404341 26.2251 0.635852 25.5306 0.944534 24.836C1.5619 23.5241 1.87058 22.2122 1.79341 20.746C1.79341 20.5917 1.79341 20.4373 1.79341 20.3601C1.79341 20.0515 2.02492 19.8971 2.25643 19.8971C2.48794 19.8971 2.71945 20.0515 2.71945 20.3601C2.79662 21.8264 2.71945 23.2926 2.02492 24.6817C1.40756 25.9164 1.09887 27.2283 1.17605 28.6174C1.17605 29.2347 1.17605 29.8521 1.17605 30.5466C1.48473 30.5466 1.87058 30.5466 2.17926 30.5466C2.17926 30.238 2.17926 29.9293 2.17926 29.6206C2.17926 29.3119 2.3336 29.0804 2.64228 29.0804C2.95096 29.0804 3.10531 29.3119 3.10531 29.6206C3.10531 29.9293 3.10531 30.238 3.10531 30.4695C3.10531 30.4695 3.10531 30.4695 3.10531 30.5466C3.41399 30.5466 3.72267 30.5466 4.03135 30.5466C4.03135 30.238 4.03135 29.9293 4.03135 29.6206C4.03135 29.4662 4.10852 29.2347 4.26286 29.1576C4.34003 29.0804 4.57154 29.0804 4.72588 29.0804C4.88023 29.0804 4.9574 29.3119 4.9574 29.4662C4.9574 29.7749 4.9574 30.1608 4.9574 30.4695C5.34325 30.4695 5.65193 30.4695 5.96061 30.4695C5.96061 30.1608 5.96061 29.8521 5.96061 29.5434C5.96061 29.1576 6.11495 29.0032 6.42363 29.0032C6.73232 29.0032 6.88666 29.2347 6.88666 29.5434C6.88666 29.8521 6.88666 30.1608 6.88666 30.4695C7.19534 30.4695 7.50402 30.4695 7.88987 30.4695C7.88987 30.1608 7.88987 29.8521 7.88987 29.5434C7.88987 29.1576 8.04421 29.0032 8.35289 29.0032C8.66158 29.0032 8.81592 29.2347 8.81592 29.5434C8.81592 29.8521 8.81592 30.1608 8.81592 30.4695C9.1246 30.4695 9.51045 30.4695 9.81913 30.4695C9.81913 30.1608 9.81913 29.8521 9.81913 29.5434C9.81913 29.2347 9.97347 29.0032 10.2822 29.0032C10.5137 29.0032 10.7452 29.2347 10.7452 29.5434C10.7452 29.8521 10.7452 30.1608 10.7452 30.4695C11.0539 30.4695 11.3625 30.4695 11.7484 30.4695C11.7484 30.1608 11.7484 29.8521 11.7484 29.5434C11.7484 29.1576 11.9027 29.0032 12.2114 29.0032C12.5201 29.0032 12.6744 29.2347 12.6744 29.5434C12.6744 29.8521 12.6744 30.0836 12.6744 30.3923V30.4695C12.9831 30.4695 13.2918 30.4695 13.6777 30.4695C13.6777 30.1608 13.6777 29.7749 13.6777 29.4662C13.6777 29.3119 13.832 29.1576 13.9863 29.0804C14.0635 29.0032 14.295 29.0804 14.4494 29.1576C14.5265 29.2347 14.6037 29.3891 14.6037 29.5434C14.6037 29.8521 14.6037 30.1608 14.6037 30.5466C14.9124 30.5466 15.2211 30.5466 15.6069 30.5466C15.6069 30.238 15.6069 29.9293 15.6069 29.6206C15.6069 29.2347 15.7613 29.0032 16.0699 29.0804C16.3786 29.0804 16.533 29.3119 16.533 29.6206C16.533 29.9293 16.533 30.1608 16.533 30.4695C16.533 30.4695 16.533 30.4695 16.533 30.5466C16.8416 30.5466 17.1503 30.5466 17.5362 30.5466C17.5362 30.238 17.5362 29.9293 17.5362 29.6206C17.5362 29.2347 17.6905 29.0804 17.9992 29.0804C18.3079 29.0804 18.4622 29.3119 18.4622 29.6978C18.4622 30.0064 18.4622 30.3151 18.4622 30.6238C18.7709 30.6238 19.1568 30.6238 19.4654 30.6238C19.4654 30.3151 19.4654 30.0064 19.4654 29.6206C19.4654 29.3119 19.6198 29.0804 19.9285 29.0804C20.16 29.0804 20.3915 29.2347 20.3915 29.6206C20.3915 29.9293 20.3915 30.238 20.3915 30.6238C20.7002 30.6238 21.086 30.6238 21.3947 30.6238C21.3947 30.3151 21.3947 30.0064 21.3947 29.6978C21.3947 29.3891 21.549 29.1576 21.8577 29.1576C22.0892 29.1576 22.3207 29.3891 22.3207 29.6978C22.3207 30.0064 22.3207 30.3151 22.3207 30.6238C22.7066 30.6238 23.0153 30.6238 23.324 30.6238C23.324 29.7749 23.324 28.9261 23.324 28.0772C23.324 27.074 23.0924 26.0708 22.6294 25.1447C22.0121 23.91 21.7034 22.5981 21.7034 21.2862C21.7034 17.8135 21.7034 14.2637 21.7034 10.791C21.7034 9.47911 21.9349 8.32156 22.5523 7.164C23.0924 6.16078 23.324 5.0804 23.324 4.00001C23.324 3.22831 23.324 2.4566 23.324 1.60773C23.0153 1.60773 22.6294 1.60773 22.3207 1.60773C22.3207 1.91641 22.3207 2.22509 22.3207 2.53377C22.3207 2.91963 22.1664 3.07397 21.8577 3.07397C21.6262 3.07397 21.3947 2.84246 21.3947 2.53377C21.3947 2.22509 21.3947 1.91641 21.3947 1.60773C21.086 1.60773 20.7002 1.60773 20.3915 1.60773C20.3915 1.91641 20.3915 2.22509 20.3915 2.53377C20.3915 2.91963 20.2371 3.07397 19.9285 3.07397C19.6969 3.07397 19.4654 2.84246 19.4654 2.53377C19.4654 2.22509 19.4654 1.91641 19.4654 1.60773C19.1568 1.60773 18.7709 1.60773 18.4622 1.60773C18.4622 1.91641 18.4622 2.22509 18.4622 2.53377C18.4622 2.91963 18.3079 3.07397 17.9992 3.07397C17.6905 3.07397 17.5362 2.84246 17.5362 2.53377C17.5362 2.22509 17.5362 1.91641 17.5362 1.60773C17.2275 1.60773 16.8416 1.60773 16.533 1.60773C16.533 1.91641 16.533 2.22509 16.533 2.53377C16.533 2.84246 16.3786 3.07397 16.0699 3.07397C15.8384 3.07397 15.6069 2.84246 15.6069 2.53377C15.6069 2.22509 15.6069 1.91641 15.6069 1.53056C15.2982 1.53056 14.9124 1.53056 14.6037 1.53056C14.6037 1.83924 14.6037 2.14792 14.6037 2.4566C14.6037 2.76529 14.4494 2.9968 14.1407 2.9968C13.9092 2.9968 13.6777 2.76529 13.6777 2.4566C13.6777 2.14792 13.6777 1.83924 13.6777 1.53056C13.369 1.53056 13.0603 1.53056 12.6744 1.53056C12.6744 1.83924 12.6744 2.14792 12.6744 2.4566C12.6744 2.61094 12.5973 2.76529 12.5201 2.84246C12.4429 2.91963 12.2114 2.9968 12.0571 2.91963C11.9027 2.84246 11.8256 2.61094 11.7484 2.53377C11.6712 2.22509 11.7484 1.83924 11.7484 1.45339C11.4397 1.45339 11.131 1.45339 10.7452 1.45339C10.7452 1.76207 10.7452 2.07075 10.7452 2.4566C10.7452 2.84246 10.3593 3.07397 10.0506 2.91963C9.8963 2.84246 9.8963 2.68812 9.81913 2.53377C9.81913 2.37943 9.81913 2.22509 9.81913 2.07075C9.81913 1.91641 9.81913 1.76207 9.81913 1.53056C9.51045 1.53056 9.1246 1.53056 8.81592 1.53056C8.81592 1.76207 8.81592 1.91641 8.81592 2.14792C8.81592 2.76529 8.66158 2.9968 8.35289 2.9968C8.04421 2.9968 7.88987 2.76529 7.88987 2.14792C7.88987 1.91641 7.88987 1.76207 7.88987 1.53056C7.58119 1.53056 7.27251 1.53056 6.88666 1.53056C6.88666 1.83924 6.88666 2.14792 6.88666 2.4566C6.88666 2.84246 6.73232 2.9968 6.42363 2.9968C6.11495 2.9968 5.96061 2.76529 5.96061 2.4566C5.96061 2.14792 5.96061 1.83924 5.96061 1.53056C5.65193 1.53056 5.26608 1.53056 4.9574 1.53056C4.9574 1.83924 4.9574 2.14792 4.9574 2.53377C4.9574 2.84246 4.80305 3.07397 4.49437 3.07397C4.26286 2.91963 4.10852 2.76529 4.10852 2.4566C4.10852 2.14792 4.10852 1.83924 4.10852 1.45339C3.79984 1.45339 3.49116 1.45339 3.10531 1.45339C3.10531 1.76207 3.10531 2.07075 3.10531 2.30226C3.10531 2.68812 2.95096 2.91963 2.64228 2.91963C2.3336 2.91963 2.17926 2.68812 2.17926 2.30226C2.17926 1.99358 2.17926 1.6849 2.17926 1.37622C1.87058 1.37622 1.48473 1.37622 1.17605 1.37622C1.17605 1.53056 1.17605 1.6849 1.17605 1.83924C1.17605 2.84246 1.17605 3.84567 1.25322 4.84889C1.33039 5.54342 1.5619 6.16078 1.79341 6.77815C2.41077 8.09004 2.71945 9.40194 2.71945 10.8682C2.71945 13.2605 2.71945 15.5756 2.71945 17.9679C2.71945 18.045 2.71945 18.1994 2.71945 18.2765C2.64228 18.5081 2.48794 18.6624 2.25643 18.6624C2.02492 18.6624 1.87058 18.5081 1.87058 18.2765C1.87058 18.1994 1.87058 18.045 1.87058 17.9679C1.87058 15.4984 1.87058 13.029 1.87058 10.6367C1.87058 9.47911 1.63907 8.39873 1.09887 7.39551C0.481511 6.23795 0.25 5.0804 0.25 3.7685C0.25 2.9968 0.25 2.30226 0.25 1.53056C0.25 1.06754 0.404341 0.758855 0.790193 0.527344C8.43006 0.527344 15.9928 0.527344 23.6326 0.527344Z" fill="#EE2E24"/>
<path d="M7.58119 11.6399C8.43006 11.5627 9.20176 11.4856 9.8963 11.3312C11.2854 11.0225 12.6744 10.6367 14.1407 10.328C14.6037 10.2508 15.0667 10.1737 15.5297 10.0965C15.6069 10.0965 15.6841 10.0965 15.8384 10.0193C15.0667 9.24761 14.2178 8.70742 13.2146 8.55308C11.9027 8.2444 10.668 8.55308 9.51045 9.24761C9.20176 9.47912 8.89308 9.40195 8.73874 9.17044C8.5844 8.93893 8.66157 8.70742 8.97025 8.47591C11.5169 6.85533 14.9124 7.39552 16.6873 9.78781C16.8416 9.94215 16.996 10.0193 17.2275 10.0965C17.9992 10.2508 18.6937 10.4052 19.3883 10.5595C19.6969 10.6367 19.8513 10.8682 19.8513 11.1769C19.8513 12.4888 19.8513 13.7235 19.8513 15.0354C19.8513 15.4984 19.4654 15.7299 19.0024 15.5756C18.6166 15.4984 18.2307 15.3441 17.8449 15.2669C17.6905 15.1897 17.6133 15.2669 17.5362 15.4212C16.6873 17.5048 15.1439 18.8167 12.9059 19.1254C10.668 19.4341 8.81591 18.6624 7.42685 16.8875C7.50402 16.7331 7.2725 16.656 7.19533 16.656C6.42363 16.5788 5.65193 16.4245 4.95739 16.1929C4.64871 16.1158 4.49437 15.8843 4.49437 15.4984C4.49437 14.2637 4.49437 12.9518 4.49437 11.7171C4.49437 11.1769 4.88022 10.9454 5.34324 11.0997C5.65193 11.254 6.03778 11.3312 6.42363 11.4084C6.65514 11.4856 6.73231 11.4084 6.80948 11.1769C6.96382 10.8682 7.11816 10.4823 7.2725 10.1737C7.42685 9.86498 7.65836 9.78781 7.88987 9.94215C8.12138 10.0965 8.19855 10.328 7.96704 10.6367C7.8127 10.8682 7.73553 11.0997 7.65836 11.3312C7.65836 11.4084 7.65836 11.4856 7.58119 11.6399ZM5.34324 12.1801C5.34324 12.3344 5.34324 12.4116 5.34324 12.4888C5.34324 13.1833 5.34324 13.8778 5.34324 14.5724C5.34324 15.4984 5.34324 15.4984 6.26929 15.6528C7.65836 15.9614 9.04742 15.7299 10.4365 15.4212C11.5169 15.1897 12.5973 14.8811 13.6776 14.5724C13.9863 14.4952 14.2178 14.6495 14.295 14.8811C14.3722 15.1126 14.2178 15.3441 13.9092 15.4212C12.8288 15.7299 11.7484 15.9614 10.668 16.2701C9.97347 16.4245 9.35611 16.5016 8.66157 16.656C9.35611 17.582 11.2082 18.5852 13.2918 18.1222C14.9895 17.7364 16.1471 16.7331 16.8416 15.1126C16.7645 15.1126 16.7645 15.1126 16.7645 15.1126C16.6101 15.1126 16.3786 15.1126 16.2243 15.1126C15.9156 15.1126 15.6841 14.9582 15.6841 14.6495C15.6841 14.418 15.8384 14.1865 16.1471 14.1865C16.996 14.1093 17.7677 14.1865 18.5394 14.3409C18.6937 14.3409 18.8481 14.418 19.0796 14.4952C19.0796 13.492 19.0796 12.4888 19.0796 11.5627C19.0796 11.3312 19.0024 11.254 18.8481 11.1769C17.6905 10.791 16.533 10.791 15.2982 11.0225C13.9092 11.254 12.5201 11.6399 11.131 11.9486C9.58762 12.3344 7.96704 12.5659 6.34646 12.3344C6.03778 12.2573 5.7291 12.1801 5.34324 12.1801Z" fill="#F99B2A"/>
<path d="M12.2114 4.46303C8.97026 4.46303 5.7291 4.46303 2.48795 4.46303C2.41077 4.46303 2.25643 4.46303 2.17926 4.46303C1.94775 4.38586 1.79341 4.23152 1.79341 4.00001C1.79341 3.7685 1.94775 3.61416 2.17926 3.53699C2.25643 3.53699 2.3336 3.53699 2.41077 3.53699C8.97026 3.53699 15.5297 3.53699 22.0892 3.53699C22.3207 3.53699 22.5523 3.53699 22.6294 3.84567C22.7066 4.00001 22.6294 4.23152 22.5523 4.30869C22.4751 4.38586 22.2436 4.46303 22.0892 4.46303C18.7709 4.46303 15.4526 4.46303 12.2114 4.46303Z" fill="#EE2E24"/>
<path d="M11.7484 28.3859C8.66158 28.3859 5.57476 28.3859 2.48795 28.3859C2.41077 28.3859 2.25643 28.3859 2.17926 28.3859C1.94775 28.3087 1.79341 28.1543 1.79341 27.9228C1.79341 27.6913 1.94775 27.537 2.17926 27.4598C2.25643 27.4598 2.3336 27.4598 2.48795 27.4598C8.66158 27.4598 14.9124 27.4598 21.086 27.4598C21.1632 27.4598 21.3175 27.4598 21.3947 27.4598C21.6262 27.537 21.7805 27.6913 21.7805 27.9228C21.7805 28.1543 21.6262 28.3087 21.3947 28.3087C21.3175 28.3087 21.2404 28.3087 21.086 28.3087C17.922 28.3859 14.8352 28.3859 11.7484 28.3859Z" fill="#EE2E24"/>
<path d="M12.2114 21.5949C13.9863 21.5949 15.7613 21.5949 17.5362 21.5949C17.6133 21.5949 17.7677 21.5949 17.8449 21.5949C18.0764 21.5949 18.2307 21.7492 18.2307 21.9807C18.2307 22.2122 18.1535 22.3666 17.922 22.4437C17.8449 22.4437 17.6905 22.4437 17.5362 22.4437C13.9092 22.4437 10.3593 22.4437 6.73231 22.4437C6.65514 22.4437 6.5008 22.4437 6.42363 22.4437C6.19212 22.3666 6.03778 22.2122 6.03778 21.9807C6.03778 21.7492 6.19212 21.5949 6.42363 21.5177C6.57797 21.5177 6.65514 21.5177 6.80948 21.5177C8.66158 21.5949 10.4365 21.5949 12.2114 21.5949Z" fill="#F99B2A"/>
<path d="M12.2114 24.373C11.131 24.373 10.0506 24.373 8.89308 24.373C8.5844 24.373 8.35289 24.2187 8.35289 23.91C8.35289 23.6013 8.50723 23.447 8.89308 23.447C9.35611 23.447 9.8963 23.447 10.3593 23.447C12.0571 23.447 13.7548 23.447 15.4526 23.447C15.6841 23.447 15.9156 23.5241 15.9928 23.7556C16.0699 24.0643 15.8384 24.2958 15.5297 24.2958C14.6037 24.2958 13.6776 24.2958 12.7516 24.2958C12.5201 24.373 12.3658 24.373 12.2114 24.373Z" fill="#F99B2A"/>
</svg>
