<svg width="31" height="30" viewBox="0 0 31 30" fill="none" xmlns="http://www.w3.org/2000/svg">
<path d="M19.0312 24.8435C19.1556 24.8435 19.2748 24.7941 19.3627 24.7062C19.4506 24.6183 19.5 24.4991 19.5 24.3747C19.5 23.478 17.625 23.9185 17.625 25.3123C17.625 26.7044 19.5 27.1495 19.5 26.2498C19.5 26.1254 19.4506 26.0062 19.3627 25.9183C19.2748 25.8304 19.1556 25.781 19.0312 25.781C18.9069 25.781 18.7877 25.7316 18.6998 25.6437C18.6119 25.5558 18.5625 25.4366 18.5625 25.3123C18.5625 25.1879 18.6119 25.0687 18.6998 24.9808C18.7877 24.8929 18.9069 24.8435 19.0312 24.8435Z" fill="#F99B2A"/>
<path d="M19.0313 22.031C19.0313 21.7528 18.9488 21.481 18.7943 21.2497C18.6397 21.0184 18.4201 20.8382 18.1632 20.7318C17.9062 20.6253 17.6234 20.5975 17.3507 20.6517C17.0779 20.706 16.8273 20.8399 16.6306 21.0366C16.434 21.2333 16.3 21.4838 16.2458 21.7566C16.1915 22.0294 16.2194 22.3122 16.3258 22.5691C16.4322 22.8261 16.6125 23.0457 16.8437 23.2002C17.075 23.3548 17.3469 23.4372 17.625 23.4372C17.9978 23.4368 18.3553 23.2885 18.6189 23.0249C18.8825 22.7613 19.0308 22.4038 19.0313 22.031ZM17.1563 22.031C17.1563 21.9383 17.1837 21.8476 17.2353 21.7706C17.2868 21.6935 17.36 21.6334 17.4456 21.5979C17.5313 21.5624 17.6255 21.5531 17.7165 21.5712C17.8074 21.5893 17.8909 21.634 17.9565 21.6995C18.022 21.7651 18.0667 21.8486 18.0847 21.9395C18.1028 22.0305 18.0936 22.1247 18.0581 22.2104C18.0226 22.296 17.9625 22.3692 17.8854 22.4207C17.8083 22.4722 17.7177 22.4997 17.625 22.4997C17.5007 22.4996 17.3816 22.4502 17.2937 22.3623C17.2058 22.2744 17.1564 22.1553 17.1563 22.031Z" fill="#F99B2A"/>
<path d="M15.2813 25.3122C15.0031 25.3122 14.7312 25.3947 14.5 25.5492C14.2687 25.7037 14.0885 25.9233 13.982 26.1803C13.8756 26.4373 13.8478 26.72 13.902 26.9928C13.9563 27.2656 14.0902 27.5161 14.2869 27.7128C14.4836 27.9095 14.7341 28.0434 15.0069 28.0977C15.2797 28.1519 15.5624 28.1241 15.8194 28.0177C16.0764 27.9112 16.296 27.731 16.4505 27.4997C16.605 27.2685 16.6875 26.9966 16.6875 26.7184C16.6871 26.3456 16.5388 25.9882 16.2752 25.7245C16.0115 25.4609 15.6541 25.3126 15.2813 25.3122ZM15.2813 27.1872C15.1885 27.1872 15.0979 27.1597 15.0208 27.1082C14.9437 27.0567 14.8837 26.9835 14.8482 26.8978C14.8127 26.8122 14.8034 26.7179 14.8215 26.627C14.8396 26.5361 14.8842 26.4525 14.9498 26.387C15.0154 26.3214 15.0989 26.2768 15.1898 26.2587C15.2807 26.2406 15.375 26.2499 15.4606 26.2854C15.5463 26.3209 15.6195 26.3809 15.671 26.458C15.7225 26.5351 15.75 26.6257 15.75 26.7184C15.7499 26.8427 15.7004 26.9619 15.6126 27.0498C15.5247 27.1376 15.4055 27.1871 15.2813 27.1872Z" fill="#F99B2A"/>
<path d="M19.6235 28.6579C17.0225 29.5373 14.0975 28.9392 12.0824 27.1387L12.4444 26.1983C13.6961 25.8978 14.2538 24.3576 13.5522 23.3213L14.7903 20.1057C16.8144 20.731 18.0188 17.4903 16.1405 16.5985L17.1562 13.9605L18.5352 17.5418C18.7581 18.1209 19.6329 17.7834 19.4101 17.2049L17.839 13.1247H20.1157L20.6438 14.4965C19.2328 15.6763 20.2134 18.32 22.3445 17.744C22.4043 17.7284 22.4605 17.701 22.5097 17.6635C22.5589 17.6261 22.6003 17.5792 22.6313 17.5257C22.6623 17.4722 22.6825 17.4131 22.6905 17.3517C22.6986 17.2904 22.6945 17.2281 22.6783 17.1683C22.6622 17.1086 22.6344 17.0527 22.5965 17.0037C22.5587 16.9548 22.5115 16.9139 22.4578 16.8832C22.404 16.8526 22.3447 16.833 22.2833 16.8254C22.2219 16.8178 22.1596 16.8224 22.1 16.839C20.86 17.1739 20.5453 15.5409 21.427 15.0975C21.5309 15.0453 21.6117 14.9562 21.6536 14.8477C21.6955 14.7391 21.6956 14.6189 21.6538 14.5103L20.875 12.4875C20.8409 12.3991 20.7809 12.3231 20.7028 12.2695C20.6247 12.2159 20.5322 12.1872 20.4375 12.1872C17.0689 12.1891 16.8768 12.0771 16.7188 12.4875C15.1023 16.8569 14.9186 16.7825 15.1171 17.1287C15.1517 17.1892 15.1993 17.2411 15.2565 17.2809C15.3137 17.3206 15.379 17.3471 15.4477 17.3584C16.4617 17.5252 16.2119 18.736 15.6679 19.1195C15.4109 19.3007 15.1137 19.286 14.7847 19.0759C14.7261 19.0385 14.66 19.0146 14.591 19.0059C14.5221 18.9973 14.4521 19.004 14.386 19.0257C14.32 19.0474 14.2597 19.0835 14.2093 19.1314C14.159 19.1793 14.1199 19.2378 14.095 19.3026L12.5803 23.2366C12.5481 23.3202 12.5406 23.4112 12.5585 23.4989C12.5764 23.5866 12.6191 23.6673 12.6814 23.7316C13.185 24.2502 12.8461 25.2623 12.0759 25.309C11.9861 25.3145 11.8999 25.3456 11.8273 25.3987C11.7548 25.4518 11.6991 25.5246 11.6668 25.6085L11.0938 27.0974C11.0608 27.183 11.0537 27.2765 11.0734 27.3662C11.0931 27.4559 11.1386 27.5378 11.2045 27.6018C13.5424 29.8752 16.9431 30.5539 19.9238 29.5462C20.0415 29.5063 20.1386 29.4214 20.1938 29.3099C20.2489 29.1985 20.2575 29.0697 20.2177 28.952C20.1778 28.8342 20.0929 28.7371 19.9814 28.6819C19.87 28.6268 19.7412 28.6182 19.6235 28.6581V28.6579Z" fill="#F99B2A"/>
<path d="M30.2812 18.7497C29.8426 18.7497 21.1982 18.7497 19.9687 18.7497C19.8444 18.7497 19.7252 18.7991 19.6373 18.887C19.5494 18.9749 19.5 19.0941 19.5 19.2184C19.5 19.3428 19.5494 19.462 19.6373 19.5499C19.7252 19.6378 19.8444 19.6872 19.9687 19.6872H20.4785L21.3772 29.5734C21.3878 29.6898 21.4415 29.7981 21.5278 29.877C21.6141 29.9558 21.7268 29.9996 21.8437 29.9997H28.4062C28.5232 29.9997 28.6359 29.956 28.7223 29.8771C28.8087 29.7982 28.8624 29.6899 28.873 29.5734L29.2141 25.8193C29.2205 25.7575 29.2146 25.6951 29.1967 25.6356C29.1788 25.5762 29.1493 25.5209 29.1099 25.4729C29.0705 25.425 29.0219 25.3853 28.967 25.3563C28.9122 25.3273 28.8521 25.3094 28.7902 25.3038C28.7284 25.2982 28.6661 25.3049 28.6069 25.3236C28.5476 25.3423 28.4927 25.3725 28.4453 25.4126C28.3979 25.4526 28.3589 25.5017 28.3306 25.557C28.3023 25.6122 28.2853 25.6726 28.2805 25.7345L27.9781 29.0622H22.2718L21.4195 19.6872H28.8305L28.6203 22.0008C28.6099 22.1242 28.6487 22.2466 28.7282 22.3415C28.8078 22.4363 28.9217 22.4958 29.0449 22.507C29.1682 22.5182 29.2909 22.4802 29.3863 22.4013C29.4816 22.3223 29.5419 22.2089 29.5539 22.0857L29.7718 19.6872H30.2812C30.4055 19.6872 30.5248 19.6378 30.6127 19.5499C30.7006 19.462 30.75 19.3428 30.75 19.2184C30.75 19.0941 30.7006 18.9749 30.6127 18.887C30.5248 18.7991 30.4055 18.7497 30.2812 18.7497Z" fill="#EE2E24"/>
<path d="M17.1566 11.2402C17.2169 11.2525 17.2791 11.2529 17.3395 11.2412C17.4 11.2295 17.4575 11.2061 17.5089 11.1721C17.5603 11.1382 17.6045 11.0945 17.6389 11.0435C17.6734 10.9926 17.6975 10.9353 17.7099 10.875C17.9164 9.86346 18.4866 8.96279 19.3125 8.34348C19.3303 8.33017 19.3471 8.31562 19.3627 8.29994C19.9851 7.67721 20.0767 6.51019 18.875 5.50537C18.6562 5.32244 18.5772 5.01318 18.6406 4.83881C18.6558 4.79715 18.6944 4.68646 18.9628 4.68723C24.6396 4.79527 24.9243 4.52088 25.0434 4.84625C25.1063 5.01799 25.0359 5.31875 24.8127 5.50537C24.2196 6.00125 23.9061 6.53973 23.8811 7.10568C23.8561 7.66566 24.1607 8.18252 24.3752 8.34342C24.8979 8.73753 25.3223 9.24734 25.615 9.83289C25.9078 10.4184 26.0609 11.0638 26.0625 11.7185C26.0625 11.8428 26.1119 11.962 26.1998 12.0499C26.2877 12.1378 26.407 12.1872 26.5313 12.1872C26.6556 12.1872 26.7748 12.1378 26.8627 12.0499C26.9507 11.962 27 11.8428 27 11.7185C26.9981 10.9265 26.8147 10.1456 26.4638 9.43558C26.113 8.72559 25.6041 8.10544 24.9763 7.62277C24.5932 7.14781 24.9479 6.6142 25.414 6.22449C26.2625 5.51515 26.2128 4.09601 25.125 3.80029V0.468475C25.125 0.344155 25.0757 0.224927 24.9877 0.137019C24.8998 0.0491114 24.7806 -0.000274658 24.6563 -0.000274658L19.0313 -0.000274658C18.907 -0.000274658 18.7877 0.0491114 18.6998 0.137019C18.6119 0.224927 18.5625 0.344155 18.5625 0.468475V3.79994C17.4637 4.09291 17.4235 5.51381 18.2735 6.22455C18.7459 6.61941 19.0915 7.15098 18.7114 7.62277C17.7224 8.37893 17.0404 9.46743 16.7914 10.6872C16.7665 10.809 16.791 10.9356 16.8595 11.0393C16.928 11.143 17.0349 11.2153 17.1566 11.2402ZM19.5 0.937225H24.1875V1.87473H20.9063C20.782 1.87473 20.6627 1.92411 20.5748 2.01202C20.4869 2.09993 20.4375 2.21916 20.4375 2.34348C20.4375 2.4678 20.4869 2.58702 20.5748 2.67493C20.6627 2.76284 20.782 2.81223 20.9063 2.81223H24.1875V3.74973H19.5V0.937225Z" fill="#EE2E24"/>
<path d="M5.90625 22.031C5.90625 21.9067 5.85686 21.7874 5.76896 21.6995C5.68105 21.6116 5.56182 21.5622 5.4375 21.5622C4.94039 21.5617 4.4638 21.364 4.11229 21.0124C3.76078 20.6609 3.56306 20.1843 3.5625 19.6872C3.5625 18.9739 4.59768 17.3565 5.4375 16.2347C6.27732 17.3561 7.3125 18.973 7.3125 19.6872C7.3125 19.8116 7.36189 19.9308 7.44979 20.0187C7.5377 20.1066 7.65693 20.156 7.78125 20.156C7.90557 20.156 8.0248 20.1066 8.11271 20.0187C8.20061 19.9308 8.25 19.8116 8.25 19.6872C8.25 18.2693 6.05373 15.4878 5.8033 15.1755C5.75938 15.1207 5.70371 15.0765 5.64039 15.0461C5.57707 15.0157 5.50774 14.9999 5.4375 14.9999C5.36726 14.9999 5.29793 15.0157 5.23461 15.0461C5.17129 15.0765 5.11562 15.1207 5.0717 15.1755C4.82127 15.4878 2.625 18.2693 2.625 19.6872C2.625 22.2717 5.90625 23.1626 5.90625 22.031Z" fill="#F99B2A"/>
<path d="M11.5312 29.0622H10.125V8.09832L12.4746 4.18279L14.8323 8.09873V12.656C14.8323 12.7803 14.8817 12.8995 14.9696 12.9874C15.0575 13.0753 15.1767 13.1247 15.3011 13.1247C15.4254 13.1247 15.5446 13.0753 15.6325 12.9874C15.7204 12.8995 15.7698 12.7803 15.7698 12.656V7.96848C15.7698 7.72988 15.7924 7.92101 12.9378 3.13449V0.468475C12.9378 0.344155 12.8884 0.224927 12.8005 0.137019C12.7126 0.0491114 12.5934 -0.000274658 12.469 -0.000274658L4.03125 -0.000274658C3.90693 -0.000274658 3.7877 0.0491114 3.69979 0.137019C3.61189 0.224927 3.5625 0.344155 3.5625 0.468475V3.15119L3.1875 3.77639C3.15506 3.82919 3.13341 3.88791 3.12381 3.94913C3.11421 4.01036 3.11684 4.07288 3.13156 4.13308C3.14628 4.19328 3.17279 4.24997 3.20956 4.29986C3.24633 4.34975 3.29263 4.39185 3.34577 4.42373C3.39892 4.45561 3.45786 4.47664 3.51919 4.48559C3.58051 4.49454 3.643 4.49124 3.70304 4.47589C3.76309 4.46053 3.81949 4.43342 3.86898 4.39613C3.91848 4.35883 3.96009 4.31209 3.99141 4.25861L4.29668 3.74973H11.6409L9.39088 7.49973H7.78125C7.65693 7.49973 7.5377 7.54911 7.44979 7.63702C7.36189 7.72493 7.3125 7.84416 7.3125 7.96848C7.3125 8.0928 7.36189 8.21202 7.44979 8.29993C7.5377 8.38784 7.65693 8.43723 7.78125 8.43723H9.1875V12.1872H1.6875V8.43723H5.90625C6.03057 8.43723 6.1498 8.38784 6.23771 8.29993C6.32561 8.21202 6.375 8.0928 6.375 7.96848C6.375 7.84416 6.32561 7.72493 6.23771 7.63702C6.1498 7.54911 6.03057 7.49973 5.90625 7.49973H2.04656L2.0625 7.47306C2.12488 7.36653 2.14272 7.23968 2.11213 7.12006C2.08154 7.00045 2.00499 6.89774 1.89912 6.83423C1.79325 6.77072 1.66659 6.75155 1.54667 6.78087C1.42674 6.81019 1.32322 6.88564 1.25859 6.99084C0.793652 7.76674 0.75 7.79551 0.75 7.96848V29.531C0.75 29.6553 0.799386 29.7745 0.887294 29.8624C0.975201 29.9503 1.09443 29.9997 1.21875 29.9997H11.5312C11.6556 29.9997 11.7748 29.9503 11.8627 29.8624C11.9506 29.7745 12 29.6553 12 29.531C12 29.4067 11.9506 29.2874 11.8627 29.1995C11.7748 29.1116 11.6556 29.0622 11.5312 29.0622ZM4.5 2.81223V0.937225H12V2.81223H4.5ZM9.1875 29.0622H1.6875V25.3122H9.1875V29.0622ZM9.1875 24.3747H1.6875V13.1247H9.1875V24.3747Z" fill="#EE2E24"/>
<path d="M2.625 6.09348C2.88388 6.09348 3.09375 5.88361 3.09375 5.62473C3.09375 5.36584 2.88388 5.15598 2.625 5.15598C2.36612 5.15598 2.15625 5.36584 2.15625 5.62473C2.15625 5.88361 2.36612 6.09348 2.625 6.09348Z" fill="#EE2E24"/>
<path d="M7.3125 22.0309C7.57138 22.0309 7.78125 21.8211 7.78125 21.5622C7.78125 21.3033 7.57138 21.0934 7.3125 21.0934C7.05362 21.0934 6.84375 21.3033 6.84375 21.5622C6.84375 21.8211 7.05362 22.0309 7.3125 22.0309Z" fill="#F99B2A"/>
<path d="M26.5313 14.0622C26.7902 14.0622 27 13.8524 27 13.5935C27 13.3346 26.7902 13.1247 26.5313 13.1247C26.2724 13.1247 26.0625 13.3346 26.0625 13.5935C26.0625 13.8524 26.2724 14.0622 26.5313 14.0622Z" fill="#EE2E24"/>
<path d="M28.875 24.3747C29.1339 24.3747 29.3437 24.1649 29.3437 23.906C29.3437 23.6471 29.1339 23.4372 28.875 23.4372C28.6161 23.4372 28.4062 23.6471 28.4062 23.906C28.4062 24.1649 28.6161 24.3747 28.875 24.3747Z" fill="#EE2E24"/>
<path d="M26.5313 14.9997C26.407 14.9997 26.2877 15.0491 26.1998 15.137C26.1119 15.2249 26.0625 15.3442 26.0625 15.4685V17.3435C26.0625 17.4678 26.1119 17.587 26.1998 17.6749C26.2877 17.7628 26.407 17.8122 26.5313 17.8122C26.6556 17.8122 26.7748 17.7628 26.8627 17.6749C26.9506 17.587 27 17.4678 27 17.3435V15.4685C27 15.3442 26.9506 15.2249 26.8627 15.137C26.7748 15.0491 26.6556 14.9997 26.5313 14.9997Z" fill="#EE2E24"/>
</svg>
