<svg width="31" height="30" viewBox="0 0 31 30" fill="none" xmlns="http://www.w3.org/2000/svg">
<g clip-path="url(#clip0_1_360)">
<path d="M7.2282 7.00392C6.75784 7.00392 6.30953 7.00392 5.86857 7.00392C5.43496 6.99657 5.25858 6.82754 5.25858 6.40127C5.25858 5.80598 5.25858 5.21068 5.25858 4.62273C5.25858 4.18177 5.43496 4.01274 5.89062 4.00539C6.33893 4.00539 6.77989 4.00539 7.2429 4.00539C7.2429 3.66732 7.2429 3.35865 7.2429 3.00588C6.81664 3.00588 6.38303 3.00588 5.94941 3.00588C5.41291 3.00588 5.25858 2.85154 5.25858 2.32239C5.25858 1.77119 5.25858 1.21999 5.25858 0.66879C5.25858 0.183733 5.42761 0.00734934 5.91267 0.00734934C8.45554 0.00734934 10.9911 0.00734934 13.5339 0.00734934C18.8475 0 24.1684 0 29.4893 0C30.114 0 30.2463 0.132288 30.2463 0.742283C30.2463 1.23469 30.2463 1.71975 30.2463 2.21215C30.2463 2.87359 30.1214 2.99853 29.4746 2.99853C25.8735 2.99853 22.2723 2.99853 18.6711 2.99853C18.5462 2.99853 18.4212 2.99853 18.2743 2.99853C18.2743 3.32925 18.2743 3.64527 18.2743 3.99804C18.3992 3.99804 18.5168 3.99804 18.6417 3.99804C22.2723 3.99804 25.9102 3.99804 29.5408 3.99804C30.0993 3.99804 30.2463 4.14503 30.2463 4.69623C30.2463 5.21803 30.2463 5.73983 30.2463 6.26164C30.2463 6.86428 30.114 7.00392 29.5187 7.00392C25.8955 7.00392 22.2723 7.00392 18.6491 7.00392C18.5241 7.00392 18.4065 7.00392 18.2669 7.00392C18.2669 9.00294 18.2669 10.9799 18.2669 13.001C18.3698 13.001 18.48 13.001 18.5903 13.001C19.7735 13.001 20.9641 13.001 22.1474 12.9936C22.4046 12.9936 22.581 13.0818 22.7133 13.3023C23.5217 14.6031 24.3301 15.8966 25.1385 17.1975C25.3443 17.5282 25.2782 17.8148 24.9842 17.9691C24.727 18.1014 24.4844 18.0206 24.3007 17.734C23.7789 16.9035 23.2645 16.073 22.7427 15.2499C22.6839 15.1543 22.6177 15.0661 22.5222 14.9118C22.3605 15.8672 22.2135 16.7565 22.0665 17.6384C21.4859 21.0926 20.9127 24.5541 20.3321 28.0083C20.288 28.2729 20.2512 28.5448 20.1851 28.8021C19.9867 29.559 19.4208 29.9927 18.6344 29.9927C14.7172 29.9927 10.8073 29.9927 6.89013 29.9927C6.01556 29.9927 5.40556 29.4855 5.26593 28.6257C4.58979 24.5835 3.921 20.5414 3.25221 16.4993C3.17136 15.9922 3.07582 15.4851 2.98028 14.9118C2.89209 15.0441 2.82595 15.1249 2.7745 15.2058C2.2527 16.0363 1.73824 16.8667 1.22379 17.6972C1.03271 17.9985 0.804878 18.0794 0.547651 17.9471C0.246328 17.7927 0.165486 17.5135 0.371267 17.1828C0.738734 16.5801 1.1209 15.9848 1.49572 15.3822C1.89258 14.7501 2.31149 14.1254 2.67896 13.4713C2.88474 13.1039 3.15667 12.9789 3.56823 12.9863C4.78822 13.0083 6.00086 12.9936 7.2429 12.9936C7.2282 11.002 7.2282 9.01764 7.2282 7.00392ZM4.01654 14.978C4.03124 15.0735 4.03124 15.1176 4.03859 15.1543C4.77352 19.5639 5.50845 23.9809 6.24339 28.3905C6.32423 28.8829 6.44917 28.9931 6.94158 28.9931C10.8147 28.9931 14.6878 28.9931 18.5609 28.9931C18.9945 28.9931 19.1635 28.8609 19.2444 28.4346C19.3399 27.9422 19.4134 27.4498 19.4942 26.9574C20.0307 23.7531 20.5599 20.5561 21.0964 17.3518C21.2213 16.5801 21.3463 15.8158 21.4859 14.978C21.3536 15.1029 21.2801 15.169 21.2066 15.2425C20.435 16.0142 19.6486 16.7785 18.8916 17.5649C18.5976 17.8736 18.289 18.0059 17.8553 17.9985C14.4085 17.9838 10.9617 17.9838 7.51482 17.9912C7.17675 17.9912 6.92688 17.8956 6.6917 17.6531C5.83182 16.7785 4.9499 15.9113 4.01654 14.978ZM21.0009 14.0299C15.4815 14.0299 10.0136 14.0299 4.49425 14.0299C5.47171 15.0073 6.41242 15.9554 7.36049 16.8888C7.42663 16.9549 7.55892 16.9917 7.66181 16.9917C11.0572 16.999 14.4452 16.999 17.8406 16.9917C17.9435 16.9917 18.0685 16.9476 18.142 16.8814C19.09 15.9481 20.0307 15 21.0009 14.0299ZM6.26544 1.97697C13.9381 1.97697 21.5815 1.97697 29.2248 1.97697C29.2248 1.6389 29.2248 1.32288 29.2248 1.02156C21.5594 1.02156 13.9161 1.02156 6.26544 1.02156C6.26544 1.35228 6.26544 1.6536 6.26544 1.97697ZM15.2537 12.9863C15.2537 11.8398 15.2537 10.73 15.2537 9.61294C15.2537 9.21607 15.4374 8.99559 15.7534 8.99559C16.0695 8.99559 16.2532 9.22342 16.2532 9.62028C16.2532 10.6271 16.2532 11.6414 16.2532 12.6482C16.2532 12.7585 16.2532 12.8687 16.2532 12.9716C16.6133 12.9716 16.9293 12.9716 17.238 12.9716C17.238 9.63498 17.238 6.33513 17.238 3.02058C16.9073 3.02058 16.5913 3.02058 16.2532 3.02058C16.2532 3.68937 16.2532 4.33611 16.2532 4.9755C16.2532 5.32827 16.0695 5.53405 15.7681 5.53405C15.4521 5.5414 15.2684 5.33562 15.261 4.9608C15.261 4.79177 15.261 4.63008 15.261 4.46105C15.261 3.97599 15.261 3.49094 15.261 3.00588C14.9083 3.00588 14.5996 3.00588 14.2836 3.00588C14.2836 6.33513 14.2836 9.64968 14.2836 12.9789C14.5996 12.9863 14.9083 12.9863 15.2537 12.9863ZM18.2669 5.98236C21.9416 5.98236 25.5868 5.98236 29.2248 5.98236C29.2248 5.64429 29.2248 5.32827 29.2248 5.0196C25.5574 5.0196 21.9195 5.0196 18.2669 5.0196C18.2669 5.33562 18.2669 5.64429 18.2669 5.98236ZM9.24192 3.02793C8.8965 3.02793 8.58048 3.02793 8.2718 3.02793C8.2718 6.35718 8.2718 9.66438 8.2718 12.9789C8.60252 12.9789 8.91855 12.9789 9.24192 12.9789C9.24192 9.65703 9.24192 6.34983 9.24192 3.02793ZM10.2782 3.01323C10.2782 6.34983 10.2782 9.66438 10.2782 12.9716C10.6162 12.9716 10.9323 12.9716 11.2409 12.9716C11.2409 9.64233 11.2409 6.33513 11.2409 3.01323C10.9102 3.01323 10.6089 3.01323 10.2782 3.01323ZM12.2772 3.01323C12.2772 6.34983 12.2772 9.66438 12.2772 12.9789C12.6079 12.9789 12.9166 12.9789 13.24 12.9789C13.24 9.64968 13.24 6.33513 13.24 3.01323C12.9092 3.01323 12.6006 3.01323 12.2772 3.01323ZM7.23555 5.98236C7.23555 5.63694 7.23555 5.32827 7.23555 5.0196C6.90483 5.0196 6.58881 5.0196 6.27279 5.0196C6.27279 5.35767 6.27279 5.66634 6.27279 5.98236C6.60351 5.98236 6.91218 5.98236 7.23555 5.98236Z" fill="#EE2E24"/>
<path d="M12.7623 19.4978C14.9597 19.5052 16.7529 21.3057 16.7456 23.5032C16.7456 25.7153 14.9303 27.5086 12.7182 27.4939C10.5281 27.4865 8.74217 25.6786 8.74952 23.4738C8.75687 21.2837 10.5648 19.4978 12.7623 19.4978ZM9.75638 23.4811C9.74903 25.1421 11.0866 26.487 12.7402 26.4944C14.3938 26.5017 15.7461 25.1641 15.7534 23.5105C15.7608 21.8569 14.4232 20.5047 12.7696 20.4973C11.1087 20.49 9.75638 21.8275 9.75638 23.4811Z" fill="#F99B2A"/>
<path d="M16.2458 7.27586C16.2458 7.39345 16.2532 7.50369 16.2458 7.62128C16.2164 7.87851 16.0107 8.04754 15.7534 8.04754C15.4962 8.04754 15.2831 7.87116 15.261 7.62128C15.2463 7.4155 15.2463 7.20237 15.261 6.99659C15.2757 6.69526 15.4815 6.50418 15.7534 6.50418C16.0254 6.50418 16.2238 6.70261 16.2458 7.00394C16.2532 7.09213 16.2458 7.18032 16.2458 7.27586Z" fill="#F99B2A"/>
</g>
<defs>
<clipPath id="clip0_1_360">
<rect width="29.9926" height="30" fill="white" transform="translate(0.253677)"/>
</clipPath>
</defs>
</svg>
