<svg width="31" height="30" viewBox="0 0 31 30" fill="none" xmlns="http://www.w3.org/2000/svg">
<path d="M3.09375 14.5313C3.09374 14.552 3.09511 14.5727 3.09785 14.5933L4.86439 27.8421C4.91031 28.1795 5.07671 28.4889 5.3329 28.7132C5.58909 28.9375 5.91778 29.0616 6.25828 29.0625H26.0625C26.4353 29.0621 26.7928 28.9138 27.0564 28.6502C27.32 28.3865 27.4683 28.0291 27.4688 27.6563V25.8123L29.3396 11.7808C29.3396 11.7787 29.3396 11.7767 29.3401 11.7749C29.3412 11.7654 29.3418 11.7558 29.3424 11.7461C29.3428 11.7391 29.3433 11.7321 29.3435 11.7251C29.3435 11.723 29.3435 11.721 29.3435 11.7192V9.84376C29.3435 9.71944 29.2941 9.60021 29.2062 9.5123C29.1183 9.4244 28.999 9.37501 28.8747 9.37501H19.5C19.3757 9.37501 19.2565 9.4244 19.1685 9.5123C19.0806 9.60021 19.0313 9.71944 19.0313 9.84376V11.7188C19.0313 11.7209 19.0313 11.7229 19.0313 11.7246C19.0313 11.7317 19.0319 11.7386 19.0323 11.7457C19.0329 11.7553 19.0335 11.7649 19.0346 11.7744C19.0346 11.7764 19.0346 11.7784 19.0351 11.7803L19.8993 18.2616C18.9568 18.19 18.6655 17.935 18.5802 17.8154C18.5498 17.7724 18.5295 17.7231 18.5208 17.6712C18.512 17.6193 18.5151 17.5661 18.5297 17.5155C18.5614 17.4461 18.5748 17.3697 18.5686 17.2936C18.5625 17.2176 18.537 17.1443 18.4946 17.0809C18.4506 17.0156 18.3907 16.9624 18.3206 16.9264C18.2506 16.8904 18.1725 16.8727 18.0938 16.875C17.1611 16.875 16.4423 17.0566 15.8502 17.3265L16.2146 14.5933C16.2174 14.5727 16.2188 14.552 16.2188 14.5313C16.2179 13.4081 15.9069 12.3069 15.3201 11.3492C14.7333 10.3915 13.8935 9.61432 12.8933 9.10343C12.9332 9.01793 12.9464 8.92234 12.9311 8.82921L12.4624 6.01671C12.4441 5.90726 12.3876 5.80783 12.303 5.7361C12.2183 5.66438 12.111 5.62501 12 5.62501H11.5313V3.75001H14.8125C14.9368 3.75001 15.056 3.70063 15.144 3.61272C15.2319 3.52481 15.2813 3.40558 15.2813 3.28126V1.40626C15.2812 1.34208 15.2681 1.27858 15.2425 1.21971C15.217 1.16083 15.1796 1.10782 15.1327 1.06397C15.0859 1.02013 15.0305 0.986372 14.97 0.9648C14.9096 0.943229 14.8454 0.9343 14.7813 0.938568L7.75008 1.40732C7.65723 1.41351 7.56833 1.4472 7.49469 1.50409C7.42105 1.56098 7.36601 1.63849 7.33658 1.72677L6.86783 3.13302C6.84434 3.20348 6.83793 3.27852 6.84913 3.35194C6.86033 3.42536 6.88882 3.49508 6.93224 3.55533C6.97567 3.61559 7.03279 3.66466 7.09891 3.69851C7.16502 3.73236 7.23823 3.75001 7.3125 3.75001H7.78125V5.62501H7.3125C7.20154 5.62501 7.09418 5.66438 7.00951 5.7361C6.92485 5.80783 6.86838 5.90726 6.85014 6.01671L6.38139 8.82921C6.36606 8.92234 6.37925 9.01793 6.41924 9.10343C5.41897 9.61432 4.57916 10.3915 3.99239 11.3492C3.40561 12.3069 3.09464 13.4081 3.09375 14.5313ZM22.3125 28.125H11.002C10.8937 28.1249 10.79 28.0819 10.7134 28.0053C10.6369 27.9288 10.5939 27.825 10.5938 27.7168V22.9082C10.5939 22.8 10.6369 22.6962 10.7134 22.6197C10.79 22.5432 10.8937 22.5001 11.002 22.5H22.373C22.4813 22.5001 22.585 22.5432 22.6616 22.6197C22.7381 22.6962 22.7811 22.8 22.7813 22.9082V27.7168C22.7811 27.825 22.7381 27.9288 22.6616 28.0053C22.585 28.0819 22.4813 28.1249 22.373 28.125H22.3125ZM12 20.625H21.375V21.5625H12V20.625ZM26.5313 27.6563C26.5311 27.7805 26.4817 27.8997 26.3938 27.9876C26.3059 28.0754 26.1868 28.1249 26.0625 28.125H23.6553C23.6974 27.993 23.7188 27.8553 23.7188 27.7168V26.25H26.5313V27.6563ZM26.5898 25.3125H23.7188V22.9082C23.7183 22.5514 23.5764 22.2094 23.3242 21.9571C23.0719 21.7048 22.7298 21.5629 22.373 21.5625H22.3125V20.1563C22.3125 20.1431 22.3116 20.1302 22.3106 20.1173C22.3106 20.1155 22.3101 20.1122 22.3098 20.1093V20.1077C22.2745 19.8005 22.1816 19.5026 22.036 19.2298C21.9185 19.0006 21.7514 18.8004 21.5469 18.6439C21.3424 18.4873 21.1055 18.3783 20.8535 18.3248L20.0354 12.1875H28.3396L26.5898 25.3125ZM19.9688 10.3125H28.4063V11.25H19.9688V10.3125ZM17.796 18.3295C18.1924 18.9196 19.0811 19.2188 20.4375 19.2188C20.7891 19.2188 21.0312 19.3576 21.2004 19.6557C21.2063 19.6663 21.2121 19.6769 21.2175 19.6875H14.1692C14.3692 19.5342 14.5597 19.3733 14.7486 19.2135C15.5118 18.5676 16.2372 17.9537 17.5966 17.8337C17.6268 18.0113 17.6948 18.1804 17.796 18.3295ZM8.12643 2.32179L14.3438 1.9073V2.81251H7.96289L8.12643 2.32179ZM8.71875 3.75001H10.5938V5.62501H8.71875V3.75001ZM7.39711 8.43751L7.70959 6.56251H11.6029L11.9154 8.43751H7.39711ZM9.1875 9.37501H10.125C11.4868 9.37652 12.7928 9.91608 13.7586 10.8762C14.7244 11.8362 15.2717 13.139 15.2813 14.5008L14.8216 17.9473C14.5804 18.1278 14.3582 18.3156 14.143 18.4977C13.3887 19.1362 12.7371 19.6875 11.5313 19.6875C11.4069 19.6875 11.2877 19.7369 11.1998 19.8248C11.1119 19.9127 11.0625 20.0319 11.0625 20.1563V21.5625H11.002C10.6452 21.5629 10.3031 21.7048 10.0508 21.9571C9.79856 22.2094 9.65665 22.5514 9.65625 22.9082V27.7168C9.6562 27.8553 9.67761 27.993 9.71971 28.125H6.25828C6.14478 28.1247 6.03522 28.0833 5.94982 28.0086C5.86442 27.9338 5.80895 27.8307 5.79363 27.7182L4.03125 14.5008C4.04083 13.139 4.58812 11.8362 5.5539 10.8762C6.51968 9.91608 7.82571 9.37652 9.1875 9.37501Z" fill="#EE2E24"/>
<path d="M16.6875 23.4375C16.3166 23.4375 15.9541 23.5475 15.6458 23.7535C15.3375 23.9595 15.0971 24.2524 14.9552 24.595C14.8133 24.9376 14.7762 25.3146 14.8485 25.6783C14.9209 26.042 15.0994 26.3761 15.3617 26.6383C15.6239 26.9006 15.958 27.0791 16.3217 27.1515C16.6854 27.2238 17.0624 27.1867 17.405 27.0448C17.7476 26.9029 18.0405 26.6625 18.2465 26.3542C18.4525 26.0459 18.5625 25.6833 18.5625 25.3125C18.5619 24.8154 18.3642 24.3388 18.0127 23.9873C17.6612 23.6358 17.1846 23.4381 16.6875 23.4375ZM16.6875 26.25C16.5021 26.25 16.3208 26.195 16.1666 26.092C16.0125 25.989 15.8923 25.8426 15.8214 25.6713C15.7504 25.5 15.7318 25.3115 15.768 25.1296C15.8042 24.9477 15.8935 24.7807 16.0246 24.6496C16.1557 24.5185 16.3227 24.4292 16.5046 24.393C16.6864 24.3568 16.875 24.3754 17.0463 24.4464C17.2176 24.5173 17.364 24.6375 17.467 24.7917C17.57 24.9458 17.625 25.1271 17.625 25.3125C17.6247 25.5611 17.5258 25.7993 17.3501 25.9751C17.1743 26.1508 16.936 26.2497 16.6875 26.25Z" fill="#F99B2A"/>
<path d="M24.1875 16.875C25.5234 16.875 26.5312 16.2705 26.5312 15.4688C26.5312 14.667 25.5234 14.0625 24.1875 14.0625C22.8516 14.0625 21.8438 14.667 21.8438 15.4688C21.8438 16.2705 22.8516 16.875 24.1875 16.875ZM24.1875 15C25.095 15 25.5938 15.3521 25.5938 15.4688C25.5938 15.5854 25.095 15.9375 24.1875 15.9375C23.28 15.9375 22.7812 15.5854 22.7812 15.4688C22.7812 15.3521 23.28 15 24.1875 15Z" fill="#F99B2A"/>
<path d="M6.84375 16.4062H12.4688C12.5931 16.4062 12.7123 16.3569 12.8002 16.269C12.8881 16.181 12.9375 16.0618 12.9375 15.9375V13.125C12.9375 13.0007 12.8881 12.8815 12.8002 12.7935C12.7123 12.7056 12.5931 12.6562 12.4688 12.6562H6.84375C6.71943 12.6562 6.6002 12.7056 6.51229 12.7935C6.42439 12.8815 6.375 13.0007 6.375 13.125V15.9375C6.375 16.0618 6.42439 16.181 6.51229 16.269C6.6002 16.3569 6.71943 16.4062 6.84375 16.4062ZM7.3125 13.5938H12V15.4688H7.3125V13.5938Z" fill="#F99B2A"/>
</svg>
