<svg width="31" height="30" viewBox="0 0 31 30" fill="none" xmlns="http://www.w3.org/2000/svg">
<g clip-path="url(#clip0_1_375)">
<path d="M25.75 0H20.75C20.4739 0 20.25 0.223877 20.25 0.5V2C20.25 2.23755 20.4172 2.44238 20.6499 2.48999L21.1284 2.58594C21.5361 2.6687 21.9197 2.84326 22.25 3.09595V3.19605C22.251 4.15527 21.7715 5.05127 20.9724 5.58252L21.5276 6.41455C22.3103 5.89282 22.8755 5.10327 23.1165 4.19409C23.1782 4.3313 23.2285 4.47363 23.2666 4.61939C23.3213 4.84229 23.5208 4.99902 23.75 5H24.75V6.42651L23.396 10.9395L24.354 11.2271L25.6221 7H27.8325L28.75 12.0449V23.5C28.75 24.3284 28.0784 25 27.25 25H25.9585V26H27.25C28.6301 25.9983 29.7483 24.8801 29.75 23.5V12C29.75 11.97 29.7471 11.9399 29.7415 11.9104L28.75 6.45654V5H29.75C30.0261 5 30.25 4.77612 30.25 4.5C30.2473 2.01587 28.2341 0.00268555 25.75 0ZM27.75 6H25.75V5H27.75V6ZM28.25 4H24.1184C23.666 2.77173 22.6094 1.86548 21.3264 1.60547L21.25 1.59009V1H25.75C27.489 1.0022 28.9636 2.27905 29.2146 4H28.25Z" fill="#EE2E24"/>
<path d="M2.74999 26H6.24999V25H2.74999C1.92162 25 1.24999 24.3284 1.24999 23.5V16.3406C1.24999 15.8293 1.32127 15.3208 1.4619 14.8296L2.23094 12.1375C2.25877 12.0405 2.25633 11.9375 2.22411 11.842L1.34593 9.20801C1.10204 8.47412 1.33226 7.66602 1.9265 7.1709L3.93089 5.5H8.56908L10.019 6.70899L10.6594 5.94092L9.24999 4.76538V3.5C9.24999 3.36743 9.19725 3.24023 9.1035 3.14648L8.24999 2.29297V0.5C8.24999 0.223877 8.02611 0 7.74999 0H4.74999C4.47386 0 4.24999 0.223877 4.24999 0.5V2.29297L3.39647 3.14648C3.30272 3.24023 3.24999 3.36743 3.24999 3.5V4.76538L1.28587 6.40259C0.375962 7.16138 0.0243993 8.40064 0.399888 9.52442L1.2285 12.0115L0.499985 14.5544C0.33397 15.1353 0.249741 15.7363 0.249985 16.3406V23.5C0.251694 24.8801 1.36986 25.9983 2.74999 26ZM5.24999 1H7.24999V2H5.24999V1ZM4.24999 3.70703L4.95702 3H7.54295L8.24999 3.70703V4.5H4.24999V3.70703Z" fill="#EE2E24"/>
<path d="M9.25 8.5C9.25 7.37842 7.93189 6.5 6.25 6.5C4.56812 6.5 3.25 7.37842 3.25 8.5C3.25 9.62158 4.56812 10.5 6.25 10.5C7.93189 10.5 9.25 9.62158 9.25 8.5ZM4.25 8.5C4.25 8.02808 5.10547 7.5 6.25 7.5C7.39453 7.5 8.25 8.02808 8.25 8.5C8.25 8.97192 7.39453 9.5 6.25 9.5C5.10547 9.5 4.25 8.97192 4.25 8.5Z" fill="#F99B2A"/>
<path d="M5.69995 16.584L6.03589 15.6426L2.91797 14.529C2.76489 14.4743 2.59473 14.4975 2.46191 14.5913C2.3291 14.685 2.25 14.8374 2.25 15V21C2.25171 22.3801 3.36987 23.4983 4.75 23.5H5.75V22.5H4.75C3.92163 22.5 3.25 21.8284 3.25 21V15.7095L5.69995 16.584Z" fill="#F99B2A"/>
<path d="M19.1609 16.2024C20.5464 18.0305 20.9939 20.4028 20.3694 22.6101C20.1304 23.3874 20.562 24.2122 21.3369 24.459C22.1118 24.7058 22.9409 24.2825 23.1955 23.51C24.3171 20.3337 23.7319 16.8044 21.6455 14.1599L21.4455 13.9045C20.9016 13.2087 19.8977 13.0833 19.1992 13.6235C18.5005 14.1641 18.3699 15.1672 18.9065 15.8684L19.1609 16.2024ZM19.5911 14.7549C19.6435 14.5281 19.8218 14.3516 20.0493 14.301C20.2766 14.2507 20.5127 14.3352 20.6565 14.5186L20.8564 14.7739C22.7319 17.1501 23.258 20.322 22.25 23.1765C22.1831 23.3369 22.0376 23.4509 21.8657 23.4778C21.6941 23.5046 21.5207 23.4404 21.4079 23.3081C21.3166 23.187 21.2873 23.03 21.3296 22.8845C22.0395 20.374 21.5305 17.6758 19.9546 15.5964L19.697 15.2585C19.5884 15.115 19.5493 14.9302 19.5911 14.7549Z" fill="#EE2E24"/>
<path d="M9.33399 29.7776C9.42677 29.9165 9.58277 30 9.75001 30H21.75C21.9019 30 22.0457 29.9312 22.1404 29.8125L23.3904 28.2495C25.564 25.5315 26.562 22.0581 26.1624 18.6011C25.7629 15.1438 23.999 11.9895 21.2629 9.83911L19.25 8.25708V6.5C19.25 6.22388 19.0261 6 18.75 6H18.25V4C18.25 3.44775 17.8023 3 17.25 3H13.25C12.6978 3 12.25 3.44775 12.25 4V6H11.75C11.4739 6 11.25 6.22388 11.25 6.5V8.31494L10.583 9.09351C5.60035 14.938 5.09083 23.3757 9.33399 29.7776ZM13.25 4H17.25V6H13.25V4ZM11.342 9.7439L12.1294 8.82544C12.2073 8.73486 12.25 8.61938 12.25 8.5V7H18.25V8H13.25V9H18.5769L20.6455 10.625C23.1721 12.6108 24.8008 15.5234 25.1697 18.7158C25.5386 21.908 24.617 25.1152 22.6101 27.625L21.51 29H10.02C6.17725 22.9893 6.71387 15.1731 11.342 9.7439Z" fill="#EE2E24"/>
<path d="M14.5 26C16.4292 26.0012 18.23 25.0332 19.293 23.4236C19.3633 23.3176 19.3906 23.1892 19.3694 23.064C18.7634 19.4641 17.4026 16.6379 15.323 14.6641C15.2412 14.5862 15.1355 14.5381 15.0229 14.5281C14.8501 14.5105 14.677 14.5 14.5 14.5C11.3245 14.5 8.75 17.0745 8.75 20.25C8.75 23.4255 11.3245 26 14.5 26ZM14.5 15.5C14.5874 15.5 14.6746 15.5034 14.7605 15.509C16.5715 17.291 17.7776 19.8196 18.3491 23.031C17.0349 24.8508 14.6262 25.5022 12.574 24.5928C10.5217 23.6834 9.38623 21.4617 9.85132 19.2656C10.3164 17.0698 12.2554 15.4993 14.5 15.5Z" fill="#F99B2A"/>
</g>
<defs>
<clipPath id="clip0_1_375">
<rect width="30" height="30" fill="white" transform="translate(0.25)"/>
</clipPath>
</defs>
</svg>
